<mxfile host="65bd71144e">
    <diagram id="u-paXMeQtjFZ95UdFdvD" name="Page-1">
        <mxGraphModel dx="1122" dy="827" grid="1" gridSize="10" guides="1" tooltips="1" connect="1" arrows="1" fold="1" page="1" pageScale="1" pageWidth="850" pageHeight="1100" math="0" shadow="0">
            <root>
                <mxCell id="0"/>
                <mxCell id="1" parent="0"/>
                <UserObject label="" mermaidData="{&#10;  &quot;data&quot;: &quot;graph TB\n    __START__ --&gt;|Base Prompt| leader(Leader)\n    leader --&gt; |Team Selection| router{Router}\nrouter -.-&gt; |Feedback Summary| leader\nrouter --&gt; team1_leader\n    team1_leader(Team Leader 1) --&gt; worker1_1(Worker 1)\n    worker1_1 -.-&gt; team1_leader\n    team1_leader --&gt; worker1_2(Worker 2)\n    worker1_2 -.-&gt; team1_leader\n    team1_leader --&gt; worker1_3(Worker 3)\n    worker1_3 -.-&gt; team1_leader    \n    team1_leader -.-&gt; router\n    router --&gt; team2_leader\n    team2_leader(Team Leader 2) --&gt; worker2_1(Worker 1)\n    worker2_1 -.-&gt; team2_leader\n    team2_leader --&gt; worker2_2(Worker 2)\n    worker2_2 -.-&gt; team2_leader\n    team2_leader --&gt; worker2_3(Worker 3)\n    worker2_3 -.-&gt; team2_leader\n    team2_leader -.-&gt; router\n    leader --&gt; |Updated Prompt| approval(Approval Process)\n    approval -.-&gt; |Conflicting Approval| leader\n    approval --&gt; |Unanimous Approval| __END__\n    __END__ --&gt; optimized_prompt([Optimised Prompt])\n&quot;,&#10;  &quot;config&quot;: {&#10;    &quot;theme&quot;: &quot;dark&quot;,&#10;    &quot;arrowMarkerAbsolute&quot;: false,&#10;    &quot;flowchart&quot;: {&#10;      &quot;htmlLabels&quot;: false&#10;    },&#10;    &quot;sequence&quot;: {&#10;      &quot;diagramMarginX&quot;: 50,&#10;      &quot;diagramMarginY&quot;: 10,&#10;      &quot;actorMargin&quot;: 50,&#10;      &quot;width&quot;: 150,&#10;      &quot;height&quot;: 65,&#10;      &quot;boxMargin&quot;: 10,&#10;      &quot;boxTextMargin&quot;: 5,&#10;      &quot;noteMargin&quot;: 10,&#10;      &quot;messageMargin&quot;: 35,&#10;      &quot;mirrorActors&quot;: true,&#10;      &quot;bottomMarginAdj&quot;: 1,&#10;      &quot;useMaxWidth&quot;: true,&#10;      &quot;rightAngles&quot;: false,&#10;      &quot;showSequenceNumbers&quot;: false&#10;    },&#10;    &quot;gantt&quot;: {&#10;      &quot;titleTopMargin&quot;: 25,&#10;      &quot;barHeight&quot;: 20,&#10;      &quot;barGap&quot;: 4,&#10;      &quot;topPadding&quot;: 50,&#10;      &quot;leftPadding&quot;: 75,&#10;      &quot;gridLineStartPadding&quot;: 35,&#10;      &quot;fontSize&quot;: 11,&#10;      &quot;fontFamily&quot;: &quot;\&quot;Open-Sans\&quot;, \&quot;sans-serif\&quot;&quot;,&#10;      &quot;numberSectionStyles&quot;: 4,&#10;      &quot;axisFormat&quot;: &quot;%Y-%m-%d&quot;&#10;    },&#10;    &quot;securityLevel&quot;: &quot;strict&quot;,&#10;    &quot;startOnLoad&quot;: false,&#10;    &quot;themeVariables&quot;: {&#10;      &quot;background&quot;: &quot;#333&quot;,&#10;      &quot;primaryColor&quot;: &quot;#1f2020&quot;,&#10;      &quot;secondaryColor&quot;: &quot;hsl(180, 1.5873015873%, 28.3529411765%)&quot;,&#10;      &quot;tertiaryColor&quot;: &quot;hsl(20, 1.5873015873%, 12.3529411765%)&quot;,&#10;      &quot;primaryBorderColor&quot;: &quot;#cccccc&quot;,&#10;      &quot;secondaryBorderColor&quot;: &quot;hsl(180, 0%, 18.3529411765%)&quot;,&#10;      &quot;tertiaryBorderColor&quot;: &quot;hsl(20, 0%, 2.3529411765%)&quot;,&#10;      &quot;primaryTextColor&quot;: &quot;#e0dfdf&quot;,&#10;      &quot;secondaryTextColor&quot;: &quot;rgb(183.8476190475, 181.5523809523, 181.5523809523)&quot;,&#10;      &quot;tertiaryTextColor&quot;: &quot;rgb(222.9999999999, 223.6666666666, 223.9999999999)&quot;,&#10;      &quot;lineColor&quot;: &quot;lightgrey&quot;,&#10;      &quot;textColor&quot;: &quot;#ccc&quot;,&#10;      &quot;mainBkg&quot;: &quot;#1f2020&quot;,&#10;      &quot;secondBkg&quot;: &quot;hsl(180, 1.5873015873%, 28.3529411765%)&quot;,&#10;      &quot;mainContrastColor&quot;: &quot;lightgrey&quot;,&#10;      &quot;darkTextColor&quot;: &quot;hsl(28.5714285714, 17.3553719008%, 86.2745098039%)&quot;,&#10;      &quot;border1&quot;: &quot;#81B1DB&quot;,&#10;      &quot;border2&quot;: &quot;rgba(255, 255, 255, 0.25)&quot;,&#10;      &quot;arrowheadColor&quot;: &quot;lightgrey&quot;,&#10;      &quot;fontFamily&quot;: &quot;\&quot;trebuchet ms\&quot;, verdana, arial, sans-serif&quot;,&#10;      &quot;fontSize&quot;: &quot;16px&quot;,&#10;      &quot;labelBackground&quot;: &quot;#181818&quot;,&#10;      &quot;nodeBkg&quot;: &quot;#1f2020&quot;,&#10;      &quot;nodeBorder&quot;: &quot;#81B1DB&quot;,&#10;      &quot;clusterBkg&quot;: &quot;hsl(180, 1.5873015873%, 28.3529411765%)&quot;,&#10;      &quot;clusterBorder&quot;: &quot;rgba(255, 255, 255, 0.25)&quot;,&#10;      &quot;defaultLinkColor&quot;: &quot;lightgrey&quot;,&#10;      &quot;titleColor&quot;: &quot;#F9FFFE&quot;,&#10;      &quot;edgeLabelBackground&quot;: &quot;hsl(0, 0%, 34.4117647059%)&quot;,&#10;      &quot;actorBorder&quot;: &quot;#81B1DB&quot;,&#10;      &quot;actorBkg&quot;: &quot;#1f2020&quot;,&#10;      &quot;actorTextColor&quot;: &quot;lightgrey&quot;,&#10;      &quot;actorLineColor&quot;: &quot;lightgrey&quot;,&#10;      &quot;signalColor&quot;: &quot;lightgrey&quot;,&#10;      &quot;signalTextColor&quot;: &quot;lightgrey&quot;,&#10;      &quot;labelBoxBkgColor&quot;: &quot;#1f2020&quot;,&#10;      &quot;labelBoxBorderColor&quot;: &quot;#81B1DB&quot;,&#10;      &quot;labelTextColor&quot;: &quot;lightgrey&quot;,&#10;      &quot;loopTextColor&quot;: &quot;lightgrey&quot;,&#10;      &quot;noteBorderColor&quot;: &quot;hsl(180, 0%, 18.3529411765%)&quot;,&#10;      &quot;noteBkgColor&quot;: &quot;hsl(180, 1.5873015873%, 28.3529411765%)&quot;,&#10;      &quot;noteTextColor&quot;: &quot;rgb(183.8476190475, 181.5523809523, 181.5523809523)&quot;,&#10;      &quot;activationBorderColor&quot;: &quot;#81B1DB&quot;,&#10;      &quot;activationBkgColor&quot;: &quot;hsl(180, 1.5873015873%, 28.3529411765%)&quot;,&#10;      &quot;sequenceNumberColor&quot;: &quot;black&quot;,&#10;      &quot;sectionBkgColor&quot;: &quot;hsl(52.9411764706, 28.813559322%, 58.431372549%)&quot;,&#10;      &quot;altSectionBkgColor&quot;: &quot;#333&quot;,&#10;      &quot;sectionBkgColor2&quot;: &quot;#EAE8D9&quot;,&#10;      &quot;taskBorderColor&quot;: &quot;#ffffff&quot;,&#10;      &quot;taskBkgColor&quot;: &quot;hsl(180, 1.5873015873%, 35.3529411765%)&quot;,&#10;      &quot;taskTextColor&quot;: &quot;hsl(28.5714285714, 17.3553719008%, 86.2745098039%)&quot;,&#10;      &quot;taskTextLightColor&quot;: &quot;lightgrey&quot;,&#10;      &quot;taskTextOutsideColor&quot;: &quot;lightgrey&quot;,&#10;      &quot;taskTextClickableColor&quot;: &quot;#003163&quot;,&#10;      &quot;activeTaskBorderColor&quot;: &quot;#ffffff&quot;,&#10;      &quot;activeTaskBkgColor&quot;: &quot;#81B1DB&quot;,&#10;      &quot;gridColor&quot;: &quot;lightgrey&quot;,&#10;      &quot;doneTaskBkgColor&quot;: &quot;lightgrey&quot;,&#10;      &quot;doneTaskBorderColor&quot;: &quot;grey&quot;,&#10;      &quot;critBorderColor&quot;: &quot;#E83737&quot;,&#10;      &quot;critBkgColor&quot;: &quot;#E83737&quot;,&#10;      &quot;taskTextDarkColor&quot;: &quot;hsl(28.5714285714, 17.3553719008%, 86.2745098039%)&quot;,&#10;      &quot;todayLineColor&quot;: &quot;#DB5757&quot;,&#10;      &quot;personBorder&quot;: &quot;calculated&quot;,&#10;      &quot;personBkg&quot;: &quot;calculated&quot;,&#10;      &quot;labelColor&quot;: &quot;calculated&quot;,&#10;      &quot;errorBkgColor&quot;: &quot;#a44141&quot;,&#10;      &quot;errorTextColor&quot;: &quot;#ddd&quot;,&#10;      &quot;transitionColor&quot;: &quot;lightgrey&quot;,&#10;      &quot;transitionLabelColor&quot;: &quot;#ccc&quot;,&#10;      &quot;stateLabelColor&quot;: &quot;#e0dfdf&quot;,&#10;      &quot;stateBkg&quot;: &quot;#1f2020&quot;,&#10;      &quot;labelBackgroundColor&quot;: &quot;#1f2020&quot;,&#10;      &quot;compositeBackground&quot;: &quot;#333&quot;,&#10;      &quot;altBackground&quot;: &quot;#555&quot;,&#10;      &quot;compositeTitleBackground&quot;: &quot;#1f2020&quot;,&#10;      &quot;compositeBorder&quot;: &quot;#81B1DB&quot;,&#10;      &quot;innerEndBackground&quot;: &quot;#cccccc&quot;,&#10;      &quot;specialStateColor&quot;: &quot;#f4f4f4&quot;,&#10;      &quot;fillType0&quot;: &quot;#1f2020&quot;,&#10;      &quot;fillType1&quot;: &quot;hsl(180, 1.5873015873%, 28.3529411765%)&quot;,&#10;      &quot;fillType2&quot;: &quot;hsl(244, 1.5873015873%, 12.3529411765%)&quot;,&#10;      &quot;fillType3&quot;: &quot;hsl(244, 1.5873015873%, 28.3529411765%)&quot;,&#10;      &quot;fillType4&quot;: &quot;hsl(116, 1.5873015873%, 12.3529411765%)&quot;,&#10;      &quot;fillType5&quot;: &quot;hsl(116, 1.5873015873%, 28.3529411765%)&quot;,&#10;      &quot;fillType6&quot;: &quot;hsl(308, 1.5873015873%, 12.3529411765%)&quot;,&#10;      &quot;fillType7&quot;: &quot;hsl(308, 1.5873015873%, 28.3529411765%)&quot;,&#10;      &quot;pie1&quot;: &quot;#0b0000&quot;,&#10;      &quot;pie2&quot;: &quot;#4d1037&quot;,&#10;      &quot;pie3&quot;: &quot;#3f5258&quot;,&#10;      &quot;pie4&quot;: &quot;#4f2f1b&quot;,&#10;      &quot;pie5&quot;: &quot;#6e0a0a&quot;,&#10;      &quot;pie6&quot;: &quot;#3b0048&quot;,&#10;      &quot;pie7&quot;: &quot;#995a01&quot;,&#10;      &quot;pie8&quot;: &quot;#154706&quot;,&#10;      &quot;pie9&quot;: &quot;#161722&quot;,&#10;      &quot;pie10&quot;: &quot;#00296f&quot;,&#10;      &quot;pie11&quot;: &quot;#01629c&quot;,&#10;      &quot;pie12&quot;: &quot;#010029&quot;,&#10;      &quot;pieTitleTextSize&quot;: &quot;25px&quot;,&#10;      &quot;pieTitleTextColor&quot;: &quot;hsl(28.5714285714, 17.3553719008%, 86.2745098039%)&quot;,&#10;      &quot;pieSectionTextSize&quot;: &quot;17px&quot;,&#10;      &quot;pieSectionTextColor&quot;: &quot;#ccc&quot;,&#10;      &quot;pieLegendTextSize&quot;: &quot;17px&quot;,&#10;      &quot;pieLegendTextColor&quot;: &quot;hsl(28.5714285714, 17.3553719008%, 86.2745098039%)&quot;,&#10;      &quot;pieStrokeColor&quot;: &quot;black&quot;,&#10;      &quot;pieStrokeWidth&quot;: &quot;2px&quot;,&#10;      &quot;pieOpacity&quot;: &quot;0.7&quot;,&#10;      &quot;classText&quot;: &quot;#e0dfdf&quot;,&#10;      &quot;requirementBackground&quot;: &quot;#1f2020&quot;,&#10;      &quot;requirementBorderColor&quot;: &quot;#cccccc&quot;,&#10;      &quot;requirementBorderSize&quot;: &quot;#cccccc&quot;,&#10;      &quot;requirementTextColor&quot;: &quot;#e0dfdf&quot;,&#10;      &quot;relationColor&quot;: &quot;lightgrey&quot;,&#10;      &quot;relationLabelBackground&quot;: &quot;hsl(180, 1.5873015873%, 28.3529411765%)&quot;,&#10;      &quot;relationLabelColor&quot;: &quot;lightgrey&quot;,&#10;      &quot;git0&quot;: &quot;hsl(180, 1.5873015873%, 48.3529411765%)&quot;,&#10;      &quot;git1&quot;: &quot;hsl(321.6393442623, 65.5913978495%, 38.2352941176%)&quot;,&#10;      &quot;git2&quot;: &quot;hsl(194.4, 16.5562913907%, 49.6078431373%)&quot;,&#10;      &quot;git3&quot;: &quot;hsl(23.0769230769, 49.0566037736%, 40.7843137255%)&quot;,&#10;      &quot;git4&quot;: &quot;hsl(0, 83.3333333333%, 43.5294117647%)&quot;,&#10;      &quot;git5&quot;: &quot;hsl(289.1666666667, 100%, 24.1176470588%)&quot;,&#10;      &quot;git6&quot;: &quot;hsl(35.1315789474, 98.7012987013%, 40.1960784314%)&quot;,&#10;      &quot;git7&quot;: &quot;hsl(106.1538461538, 84.4155844156%, 35.0980392157%)&quot;,&#10;      &quot;gitInv0&quot;: &quot;rgb(133.6571428571, 129.7428571428, 129.7428571428)&quot;,&#10;      &quot;gitInv1&quot;: &quot;rgb(93.5483870969, 221.4516129033, 139.677419355)&quot;,&#10;      &quot;gitInv2&quot;: &quot;rgb(149.4437086091, 117.6092715231, 107.5562913906)&quot;,&#10;      &quot;gitInv3&quot;: &quot;rgb(99.9811320754, 162.7735849057, 202.0188679245)&quot;,&#10;      &quot;gitInv4&quot;: &quot;rgb(51.5000000001, 236.5, 236.5)&quot;,&#10;      &quot;gitInv5&quot;: &quot;rgb(154.2083333334, 255, 132.0000000001)&quot;,&#10;      &quot;gitInv6&quot;: &quot;rgb(51.331168831, 135.1948051946, 253.6688311688)&quot;,&#10;      &quot;gitInv7&quot;: &quot;rgb(206.1818181817, 89.948051948, 241.051948052)&quot;,&#10;      &quot;tagLabelColor&quot;: &quot;#e0dfdf&quot;,&#10;      &quot;tagLabelBackground&quot;: &quot;#1f2020&quot;,&#10;      &quot;tagLabelBorder&quot;: &quot;#cccccc&quot;,&#10;      &quot;tagLabelFontSize&quot;: &quot;10px&quot;,&#10;      &quot;commitLabelColor&quot;: &quot;rgb(183.8476190475, 181.5523809523, 181.5523809523)&quot;,&#10;      &quot;commitLabelBackground&quot;: &quot;hsl(180, 1.5873015873%, 28.3529411765%)&quot;,&#10;      &quot;commitLabelFontSize&quot;: &quot;10px&quot;&#10;    }&#10;  }&#10;}" id="2">
                    <mxCell style="shape=image;noLabel=1;verticalAlign=top;imageAspect=1;image=data:image/svg+xml,PHN2ZyB2aWV3Qm94PSIwIDAgMTA1Ni42OTE0MDYyNSA1MjQuNjUzMTIxOTQ4MjQyMiIgc3R5bGU9Im1heC13aWR0aDogMTA1Ni42OTE0MDYyNXB4OyIgaGVpZ2h0PSI1MjQuNjUzMTIxOTQ4MjQyMiIgYXJpYS1sYWJlbGxlZGJ5PSJjaGFydC10aXRsZS1nZU1lcm1haWRPdXRwdXQtMTcyMDYyMTQ0MjIyNSBjaGFydC1kZXNjLWdlTWVybWFpZE91dHB1dC0xNzIwNjIxNDQyMjI1IiByb2xlPSJpbWciIHhtbG5zOnhsaW5rPSJodHRwOi8vd3d3LnczLm9yZy8xOTk5L3hsaW5rIiB4bWxucz0iaHR0cDovL3d3dy53My5vcmcvMjAwMC9zdmciIHdpZHRoPSIxMDAlIiBpZD0iZ2VNZXJtYWlkT3V0cHV0LTE3MjA2MjE0NDIyMjUiPjx0aXRsZSBpZD0iY2hhcnQtdGl0bGUtZ2VNZXJtYWlkT3V0cHV0LTE3MjA2MjE0NDIyMjUiPjwvdGl0bGU+PGRlc2MgaWQ9ImNoYXJ0LWRlc2MtZ2VNZXJtYWlkT3V0cHV0LTE3MjA2MjE0NDIyMjUiPjwvZGVzYz48c3R5bGU+I2dlTWVybWFpZE91dHB1dC0xNzIwNjIxNDQyMjI1IHtmb250LWZhbWlseToidHJlYnVjaGV0IG1zIix2ZXJkYW5hLGFyaWFsLHNhbnMtc2VyaWY7Zm9udC1zaXplOjE2cHg7ZmlsbDojY2NjO30jZ2VNZXJtYWlkT3V0cHV0LTE3MjA2MjE0NDIyMjUgLmVycm9yLWljb257ZmlsbDojYTQ0MTQxO30jZ2VNZXJtYWlkT3V0cHV0LTE3MjA2MjE0NDIyMjUgLmVycm9yLXRleHR7ZmlsbDojZGRkO3N0cm9rZTojZGRkO30jZ2VNZXJtYWlkT3V0cHV0LTE3MjA2MjE0NDIyMjUgLmVkZ2UtdGhpY2tuZXNzLW5vcm1hbHtzdHJva2Utd2lkdGg6MnB4O30jZ2VNZXJtYWlkT3V0cHV0LTE3MjA2MjE0NDIyMjUgLmVkZ2UtdGhpY2tuZXNzLXRoaWNre3N0cm9rZS13aWR0aDozLjVweDt9I2dlTWVybWFpZE91dHB1dC0xNzIwNjIxNDQyMjI1IC5lZGdlLXBhdHRlcm4tc29saWR7c3Ryb2tlLWRhc2hhcnJheTowO30jZ2VNZXJtYWlkT3V0cHV0LTE3MjA2MjE0NDIyMjUgLmVkZ2UtcGF0dGVybi1kYXNoZWR7c3Ryb2tlLWRhc2hhcnJheTozO30jZ2VNZXJtYWlkT3V0cHV0LTE3MjA2MjE0NDIyMjUgLmVkZ2UtcGF0dGVybi1kb3R0ZWR7c3Ryb2tlLWRhc2hhcnJheToyO30jZ2VNZXJtYWlkT3V0cHV0LTE3MjA2MjE0NDIyMjUgLm1hcmtlcntmaWxsOmxpZ2h0Z3JleTtzdHJva2U6bGlnaHRncmV5O30jZ2VNZXJtYWlkT3V0cHV0LTE3MjA2MjE0NDIyMjUgLm1hcmtlci5jcm9zc3tzdHJva2U6bGlnaHRncmV5O30jZ2VNZXJtYWlkT3V0cHV0LTE3MjA2MjE0NDIyMjUgc3Zne2ZvbnQtZmFtaWx5OiJ0cmVidWNoZXQgbXMiLHZlcmRhbmEsYXJpYWwsc2Fucy1zZXJpZjtmb250LXNpemU6MTZweDt9I2dlTWVybWFpZE91dHB1dC0xNzIwNjIxNDQyMjI1IC5sYWJlbHtmb250LWZhbWlseToidHJlYnVjaGV0IG1zIix2ZXJkYW5hLGFyaWFsLHNhbnMtc2VyaWY7Y29sb3I6I2NjYzt9I2dlTWVybWFpZE91dHB1dC0xNzIwNjIxNDQyMjI1IC5jbHVzdGVyLWxhYmVsIHRleHR7ZmlsbDojRjlGRkZFO30jZ2VNZXJtYWlkT3V0cHV0LTE3MjA2MjE0NDIyMjUgLmNsdXN0ZXItbGFiZWwgc3Bhbntjb2xvcjojRjlGRkZFO30jZ2VNZXJtYWlkT3V0cHV0LTE3MjA2MjE0NDIyMjUgLmxhYmVsIHRleHQsI2dlTWVybWFpZE91dHB1dC0xNzIwNjIxNDQyMjI1IHNwYW57ZmlsbDojY2NjO2NvbG9yOiNjY2M7fSNnZU1lcm1haWRPdXRwdXQtMTcyMDYyMTQ0MjIyNSAubm9kZSByZWN0LCNnZU1lcm1haWRPdXRwdXQtMTcyMDYyMTQ0MjIyNSAubm9kZSBjaXJjbGUsI2dlTWVybWFpZE91dHB1dC0xNzIwNjIxNDQyMjI1IC5ub2RlIGVsbGlwc2UsI2dlTWVybWFpZE91dHB1dC0xNzIwNjIxNDQyMjI1IC5ub2RlIHBvbHlnb24sI2dlTWVybWFpZE91dHB1dC0xNzIwNjIxNDQyMjI1IC5ub2RlIHBhdGh7ZmlsbDojMWYyMDIwO3N0cm9rZTojODFCMURCO3N0cm9rZS13aWR0aDoxcHg7fSNnZU1lcm1haWRPdXRwdXQtMTcyMDYyMTQ0MjIyNSAubm9kZSAubGFiZWx7dGV4dC1hbGlnbjpjZW50ZXI7fSNnZU1lcm1haWRPdXRwdXQtMTcyMDYyMTQ0MjIyNSAubm9kZS5jbGlja2FibGV7Y3Vyc29yOnBvaW50ZXI7fSNnZU1lcm1haWRPdXRwdXQtMTcyMDYyMTQ0MjIyNSAuYXJyb3doZWFkUGF0aHtmaWxsOmxpZ2h0Z3JleTt9I2dlTWVybWFpZE91dHB1dC0xNzIwNjIxNDQyMjI1IC5lZGdlUGF0aCAucGF0aHtzdHJva2U6bGlnaHRncmV5O3N0cm9rZS13aWR0aDoyLjBweDt9I2dlTWVybWFpZE91dHB1dC0xNzIwNjIxNDQyMjI1IC5mbG93Y2hhcnQtbGlua3tzdHJva2U6bGlnaHRncmV5O2ZpbGw6bm9uZTt9I2dlTWVybWFpZE91dHB1dC0xNzIwNjIxNDQyMjI1IC5lZGdlTGFiZWx7YmFja2dyb3VuZC1jb2xvcjpoc2woMCwgMCUsIDM0LjQxMTc2NDcwNTklKTt0ZXh0LWFsaWduOmNlbnRlcjt9I2dlTWVybWFpZE91dHB1dC0xNzIwNjIxNDQyMjI1IC5lZGdlTGFiZWwgcmVjdHtvcGFjaXR5OjAuNTtiYWNrZ3JvdW5kLWNvbG9yOmhzbCgwLCAwJSwgMzQuNDExNzY0NzA1OSUpO2ZpbGw6aHNsKDAsIDAlLCAzNC40MTE3NjQ3MDU5JSk7fSNnZU1lcm1haWRPdXRwdXQtMTcyMDYyMTQ0MjIyNSAuY2x1c3RlciByZWN0e2ZpbGw6aHNsKDE4MCwgMS41ODczMDE1ODczJSwgMjguMzUyOTQxMTc2NSUpO3N0cm9rZTpyZ2JhKDI1NSwgMjU1LCAyNTUsIDAuMjUpO3N0cm9rZS13aWR0aDoxcHg7fSNnZU1lcm1haWRPdXRwdXQtMTcyMDYyMTQ0MjIyNSAuY2x1c3RlciB0ZXh0e2ZpbGw6I0Y5RkZGRTt9I2dlTWVybWFpZE91dHB1dC0xNzIwNjIxNDQyMjI1IC5jbHVzdGVyIHNwYW57Y29sb3I6I0Y5RkZGRTt9I2dlTWVybWFpZE91dHB1dC0xNzIwNjIxNDQyMjI1IGRpdi5tZXJtYWlkVG9vbHRpcHtwb3NpdGlvbjphYnNvbHV0ZTt0ZXh0LWFsaWduOmNlbnRlcjttYXgtd2lkdGg6MjAwcHg7cGFkZGluZzoycHg7Zm9udC1mYW1pbHk6InRyZWJ1Y2hldCBtcyIsdmVyZGFuYSxhcmlhbCxzYW5zLXNlcmlmO2ZvbnQtc2l6ZToxMnB4O2JhY2tncm91bmQ6aHNsKDIwLCAxLjU4NzMwMTU4NzMlLCAxMi4zNTI5NDExNzY1JSk7Ym9yZGVyOjFweCBzb2xpZCByZ2JhKDI1NSwgMjU1LCAyNTUsIDAuMjUpO2JvcmRlci1yYWRpdXM6MnB4O3BvaW50ZXItZXZlbnRzOm5vbmU7ei1pbmRleDoxMDA7fSNnZU1lcm1haWRPdXRwdXQtMTcyMDYyMTQ0MjIyNSA6cm9vdHstLW1lcm1haWQtZm9udC1mYW1pbHk6InRyZWJ1Y2hldCBtcyIsdmVyZGFuYSxhcmlhbCxzYW5zLXNlcmlmO308L3N0eWxlPjxnIHRyYW5zZm9ybT0idHJhbnNsYXRlKDAsIDApIj48ZyBjbGFzcz0ib3V0cHV0Ij48ZyBjbGFzcz0iY2x1c3RlcnMiPjwvZz48ZyBjbGFzcz0iZWRnZVBhdGhzIj48ZyBzdHlsZT0ib3BhY2l0eTogMTsiIGlkPSJMLV9fU1RBUlRfXy1sZWFkZXIiIGNsYXNzPSJlZGdlUGF0aCBMUy1fX1NUQVJUX18gTEUtbGVhZGVyIj48cGF0aCBzdHlsZT0iZmlsbDpub25lIiBtYXJrZXItZW5kPSJ1cmwoI2Fycm93aGVhZDU0NikiIGQ9Ik03MzguMzM1OTM3NSw0N0w3MzguMzM1OTM3NSw1Mi43NUM3MzguMzM1OTM3NSw1OC41LDczOC4zMzU5Mzc1LDcwLDczOC4zMzU5Mzc1LDgxLjVDNzM4LjMzNTkzNzUsOTMsNzM4LjMzNTkzNzUsMTA0LjUsNzM4LjMzNTkzNzUsMTEwLjI1TDczOC4zMzU5Mzc1LDExNiIgY2xhc3M9InBhdGgiPjwvcGF0aD48ZGVmcz48bWFya2VyIG9yaWVudD0iYXV0byIgbWFya2VySGVpZ2h0PSI2IiBtYXJrZXJXaWR0aD0iOCIgbWFya2VyVW5pdHM9InN0cm9rZVdpZHRoIiByZWZZPSI1IiByZWZYPSI5IiB2aWV3Qm94PSIwIDAgMTAgMTAiIGlkPSJhcnJvd2hlYWQ1NDYiPjxwYXRoIHN0eWxlPSJzdHJva2Utd2lkdGg6IDE7IHN0cm9rZS1kYXNoYXJyYXk6IDEsIDA7IiBjbGFzcz0iYXJyb3doZWFkUGF0aCIgZD0iTSAwIDAgTCAxMCA1IEwgMCAxMCB6Ij48L3BhdGg+PC9tYXJrZXI+PC9kZWZzPjwvZz48ZyBzdHlsZT0ib3BhY2l0eTogMTsiIGlkPSJMLWxlYWRlci1yb3V0ZXIiIGNsYXNzPSJlZGdlUGF0aCBMUy1sZWFkZXIgTEUtcm91dGVyIj48cGF0aCBzdHlsZT0iZmlsbDpub25lIiBtYXJrZXItZW5kPSJ1cmwoI2Fycm93aGVhZDU0NykiIGQ9Ik03MDMuNzg5MDYyNSwxNDIuMDk4MTc2MjkxNzkzMzJMNjYyLjQyNDQ3OTE2NjY2NjYsMTQ5Ljk5ODQ4MDI0MzE2MTFDNjIxLjA1OTg5NTgzMzMzMzQsMTU3Ljg5ODc4NDE5NDUyODg3LDUzOC4zMzA3MjkxNjY2NjY2LDE3My42OTkzOTIwOTcyNjQ0NSw1MTIuMzM5NDcyOTA5NzI1NywxOTIuMTYyNTY3MTQzMjE5NkM0ODYuMzQ4MjE2NjUyNzg0ODYsMjEwLjYyNTc0MjE4OTE3NDc2LDUxNy4wOTQ4NzA4MDU1Njk3LDIzMS43NTE0ODQzNzgzNDk1NSw1MzIuNDY4MTk3ODgxOTYyLDI0Mi4zMTQzNTU0NzI5MzY5TDU0Ny44NDE1MjQ5NTgzNTQ1LDI1Mi44NzcyMjY1Njc1MjQzIiBjbGFzcz0icGF0aCI+PC9wYXRoPjxkZWZzPjxtYXJrZXIgb3JpZW50PSJhdXRvIiBtYXJrZXJIZWlnaHQ9IjYiIG1hcmtlcldpZHRoPSI4IiBtYXJrZXJVbml0cz0ic3Ryb2tlV2lkdGgiIHJlZlk9IjUiIHJlZlg9IjkiIHZpZXdCb3g9IjAgMCAxMCAxMCIgaWQ9ImFycm93aGVhZDU0NyI+PHBhdGggc3R5bGU9InN0cm9rZS13aWR0aDogMTsgc3Ryb2tlLWRhc2hhcnJheTogMSwgMDsiIGNsYXNzPSJhcnJvd2hlYWRQYXRoIiBkPSJNIDAgMCBMIDEwIDUgTCAwIDEwIHoiPjwvcGF0aD48L21hcmtlcj48L2RlZnM+PC9nPjxnIHN0eWxlPSJvcGFjaXR5OiAxOyIgaWQ9Ikwtcm91dGVyLWxlYWRlciIgY2xhc3M9ImVkZ2VQYXRoIExTLXJvdXRlciBMRS1sZWFkZXIiPjxwYXRoIHN0eWxlPSJmaWxsOm5vbmU7c3Ryb2tlLXdpZHRoOjJweDtzdHJva2UtZGFzaGFycmF5OjM7IiBtYXJrZXItZW5kPSJ1cmwoI2Fycm93aGVhZDU0OCkiIGQ9Ik02MDIuNzAxOTcwMTgyNzQ2NSwyNTAuOTgzMjE4NjU2ODY3OTZMNjE1LjIzMDE1NzQ0Mzk1NTUsMjQwLjczNjAxNTU0NzM4OTk0QzYyNy43NTgzNDQ3MDUxNjQ0LDIzMC40ODg4MTI0Mzc5MTE5Nyw2NTIuODE0NzE5MjI3NTgyMywyMDkuOTk0NDA2MjE4OTU2LDY3MS43ODEyOTI2Mjg4Mzc0LDE5My45OTcyMDMxMDk0Nzc5N0M2OTAuNzQ3ODY2MDMwMDkyNiwxNzgsNzAzLjYyNDYzODMxMDE4NTIsMTY2LjUsNzEwLjA2MzAyNDQ1MDIzMTQsMTYwLjc1TDcxNi41MDE0MTA1OTAyNzc4LDE1NSIgY2xhc3M9InBhdGgiPjwvcGF0aD48ZGVmcz48bWFya2VyIG9yaWVudD0iYXV0byIgbWFya2VySGVpZ2h0PSI2IiBtYXJrZXJXaWR0aD0iOCIgbWFya2VyVW5pdHM9InN0cm9rZVdpZHRoIiByZWZZPSI1IiByZWZYPSI5IiB2aWV3Qm94PSIwIDAgMTAgMTAiIGlkPSJhcnJvd2hlYWQ1NDgiPjxwYXRoIHN0eWxlPSJzdHJva2Utd2lkdGg6IDE7IHN0cm9rZS1kYXNoYXJyYXk6IDEsIDA7IiBjbGFzcz0iYXJyb3doZWFkUGF0aCIgZD0iTSAwIDAgTCAxMCA1IEwgMCAxMCB6Ij48L3BhdGg+PC9tYXJrZXI+PC9kZWZzPjwvZz48ZyBzdHlsZT0ib3BhY2l0eTogMTsiIGlkPSJMLXJvdXRlci10ZWFtMV9sZWFkZXIiIGNsYXNzPSJlZGdlUGF0aCBMUy1yb3V0ZXIgTEUtdGVhbTFfbGVhZGVyIj48cGF0aCBzdHlsZT0iZmlsbDpub25lIiBtYXJrZXItZW5kPSJ1cmwoI2Fycm93aGVhZDU0OSkiIGQ9Ik01MzYuNjk2NDk0NjkxNTQzMywyODAuNjMwODY4MTY1NjY0MUw0NzcuODk4MTIwNTc2Mjg2MSwyOTIuODg0NTc3MTI5NDI3MUM0MTkuMDk5NzQ2NDYxMDI4OSwzMDUuMTM4Mjg2MDkzMTkwMSwzMDEuNTAyOTk4MjMwNTE0NDQsMzI5LjY0NTcwNDAyMDcxNjE1LDI0My43Njk0Mzg5MzAwNzIwMywzNDcuNjQ5NDEyOTg0NDc5MTdDMTg2LjAzNTg3OTYyOTYyOTY1LDM2NS42NTMxMjE5NDgyNDIyLDE4OC4xNjU1MDkyNTkyNTkyNywzNzcuMTUzMTIxOTQ4MjQyMiwxODkuMjMwMzI0MDc0MDc0MDUsMzgyLjkwMzEyMTk0ODI0MjJMMTkwLjI5NTEzODg4ODg4ODg5LDM4OC42NTMxMjE5NDgyNDIyIiBjbGFzcz0icGF0aCI+PC9wYXRoPjxkZWZzPjxtYXJrZXIgb3JpZW50PSJhdXRvIiBtYXJrZXJIZWlnaHQ9IjYiIG1hcmtlcldpZHRoPSI4IiBtYXJrZXJVbml0cz0ic3Ryb2tlV2lkdGgiIHJlZlk9IjUiIHJlZlg9IjkiIHZpZXdCb3g9IjAgMCAxMCAxMCIgaWQ9ImFycm93aGVhZDU0OSI+PHBhdGggc3R5bGU9InN0cm9rZS13aWR0aDogMTsgc3Ryb2tlLWRhc2hhcnJheTogMSwgMDsiIGNsYXNzPSJhcnJvd2hlYWRQYXRoIiBkPSJNIDAgMCBMIDEwIDUgTCAwIDEwIHoiPjwvcGF0aD48L21hcmtlcj48L2RlZnM+PC9nPjxnIHN0eWxlPSJvcGFjaXR5OiAxOyIgaWQ9IkwtdGVhbTFfbGVhZGVyLXdvcmtlcjFfMSIgY2xhc3M9ImVkZ2VQYXRoIExTLXRlYW0xX2xlYWRlciBMRS13b3JrZXIxXzEiPjxwYXRoIHN0eWxlPSJmaWxsOm5vbmUiIG1hcmtlci1lbmQ9InVybCgjYXJyb3doZWFkNTUwKSIgZD0iTTEzMS40ODQzNzUsNDI3LjQ1MTU5MTMzNTk5NzNMMTE3Ljg5ODQzNzUsNDMxLjY1MTg0NjQzODAzODFDMTA0LjMxMjUsNDM1Ljg1MjEwMTU0MDA3OSw3Ny4xNDA2MjUsNDQ0LjI1MjYxMTc0NDE2MDU2LDYzLjU1NDY4NzUsNDUyLjYxOTUzMzUxMjg2ODAzQzQ5Ljk2ODc1LDQ2MC45ODY0NTUyODE1NzU1LDQ5Ljk2ODc1LDQ2OS4zMTk3ODg2MTQ5MDg5LDQ5Ljk2ODc1LDQ3My40ODY0NTUyODE1NzU1TDQ5Ljk2ODc1LDQ3Ny42NTMxMjE5NDgyNDIyIiBjbGFzcz0icGF0aCI+PC9wYXRoPjxkZWZzPjxtYXJrZXIgb3JpZW50PSJhdXRvIiBtYXJrZXJIZWlnaHQ9IjYiIG1hcmtlcldpZHRoPSI4IiBtYXJrZXJVbml0cz0ic3Ryb2tlV2lkdGgiIHJlZlk9IjUiIHJlZlg9IjkiIHZpZXdCb3g9IjAgMCAxMCAxMCIgaWQ9ImFycm93aGVhZDU1MCI+PHBhdGggc3R5bGU9InN0cm9rZS13aWR0aDogMTsgc3Ryb2tlLWRhc2hhcnJheTogMSwgMDsiIGNsYXNzPSJhcnJvd2hlYWRQYXRoIiBkPSJNIDAgMCBMIDEwIDUgTCAwIDEwIHoiPjwvcGF0aD48L21hcmtlcj48L2RlZnM+PC9nPjxnIHN0eWxlPSJvcGFjaXR5OiAxOyIgaWQ9Ikwtd29ya2VyMV8xLXRlYW0xX2xlYWRlciIgY2xhc3M9ImVkZ2VQYXRoIExTLXdvcmtlcjFfMSBMRS10ZWFtMV9sZWFkZXIiPjxwYXRoIHN0eWxlPSJmaWxsOm5vbmU7c3Ryb2tlLXdpZHRoOjJweDtzdHJva2UtZGFzaGFycmF5OjM7IiBtYXJrZXItZW5kPSJ1cmwoI2Fycm93aGVhZDU1MSkiIGQ9Ik03OS4zMTQ2MDY3NDE1NzMwMyw0NzcuNjUzMTIxOTQ4MjQyMkw4NS41ODUwODg5NTEzMTA4NSw0NzMuNDg2NDU1MjgxNTc1NUM5MS44NTU1NzExNjEwNDg2Nyw0NjkuMzE5Nzg4NjE0OTA4OSwxMDQuMzk2NTM1NTgwNTI0MzQsNDYwLjk4NjQ1NTI4MTU3NTUsMTE3Ljg3MzgyOTU4ODAxNDk3LDQ1Mi42NTMxMjE5NDgyNDIyQzEzMS4zNTExMjM1OTU1MDU2LDQ0NC4zMTk3ODg2MTQ5MDg5LDE0NS43NjQ3NDcxOTEwMTEyMiw0MzUuOTg2NDU1MjgxNTc1NSwxNTIuOTcxNTU4OTg4NzY0MDMsNDMxLjgxOTc4ODYxNDkwODlMMTYwLjE3ODM3MDc4NjUxNjg0LDQyNy42NTMxMjE5NDgyNDIyIiBjbGFzcz0icGF0aCI+PC9wYXRoPjxkZWZzPjxtYXJrZXIgb3JpZW50PSJhdXRvIiBtYXJrZXJIZWlnaHQ9IjYiIG1hcmtlcldpZHRoPSI4IiBtYXJrZXJVbml0cz0ic3Ryb2tlV2lkdGgiIHJlZlk9IjUiIHJlZlg9IjkiIHZpZXdCb3g9IjAgMCAxMCAxMCIgaWQ9ImFycm93aGVhZDU1MSI+PHBhdGggc3R5bGU9InN0cm9rZS13aWR0aDogMTsgc3Ryb2tlLWRhc2hhcnJheTogMSwgMDsiIGNsYXNzPSJhcnJvd2hlYWRQYXRoIiBkPSJNIDAgMCBMIDEwIDUgTCAwIDEwIHoiPjwvcGF0aD48L21hcmtlcj48L2RlZnM+PC9nPjxnIHN0eWxlPSJvcGFjaXR5OiAxOyIgaWQ9IkwtdGVhbTFfbGVhZGVyLXdvcmtlcjFfMiIgY2xhc3M9ImVkZ2VQYXRoIExTLXRlYW0xX2xlYWRlciBMRS13b3JrZXIxXzIiPjxwYXRoIHN0eWxlPSJmaWxsOm5vbmUiIG1hcmtlci1lbmQ9InVybCgjYXJyb3doZWFkNTUyKSIgZD0iTTE2OC45NDI0MTU3MzAzMzcwNyw0MjcuNjUzMTIxOTQ4MjQyMkwxNjMuNjA4MjYzMTA4NjE0MjQsNDMxLjgxOTc4ODYxNDkwODlDMTU4LjI3NDExMDQ4Njg5MTM3LDQzNS45ODY0NTUyODE1NzU1LDE0Ny42MDU4MDUyNDM0NDU3LDQ0NC4zMTk3ODg2MTQ5MDg5LDE0Ni42Njk0NzU2NTU0MzA3Miw0NTIuNjUzMTIxOTQ4MjQyMkMxNDUuNzMzMTQ2MDY3NDE1NzMsNDYwLjk4NjQ1NTI4MTU3NTUsMTU0LjUyODc5MjEzNDgzMTQ2LDQ2OS4zMTk3ODg2MTQ5MDg5LDE1OC45MjY2MTUxNjg1MzkzLDQ3My40ODY0NTUyODE1NzU1TDE2My4zMjQ0MzgyMDIyNDcyLDQ3Ny42NTMxMjE5NDgyNDIyIiBjbGFzcz0icGF0aCI+PC9wYXRoPjxkZWZzPjxtYXJrZXIgb3JpZW50PSJhdXRvIiBtYXJrZXJIZWlnaHQ9IjYiIG1hcmtlcldpZHRoPSI4IiBtYXJrZXJVbml0cz0ic3Ryb2tlV2lkdGgiIHJlZlk9IjUiIHJlZlg9IjkiIHZpZXdCb3g9IjAgMCAxMCAxMCIgaWQ9ImFycm93aGVhZDU1MiI+PHBhdGggc3R5bGU9InN0cm9rZS13aWR0aDogMTsgc3Ryb2tlLWRhc2hhcnJheTogMSwgMDsiIGNsYXNzPSJhcnJvd2hlYWRQYXRoIiBkPSJNIDAgMCBMIDEwIDUgTCAwIDEwIHoiPjwvcGF0aD48L21hcmtlcj48L2RlZnM+PC9nPjxnIHN0eWxlPSJvcGFjaXR5OiAxOyIgaWQ9Ikwtd29ya2VyMV8yLXRlYW0xX2xlYWRlciIgY2xhc3M9ImVkZ2VQYXRoIExTLXdvcmtlcjFfMiBMRS10ZWFtMV9sZWFkZXIiPjxwYXRoIHN0eWxlPSJmaWxsOm5vbmU7c3Ryb2tlLXdpZHRoOjJweDtzdHJva2UtZGFzaGFycmF5OjM7IiBtYXJrZXItZW5kPSJ1cmwoI2Fycm93aGVhZDU1MykiIGQ9Ik0yMTMuMjUyMTA2NzQxNTczMDQsNDc3LjY1MzEyMTk0ODI0MjJMMjE5LjUyMjU4ODk1MTMxMDksNDczLjQ4NjQ1NTI4MTU3NTVDMjI1Ljc5MzA3MTE2MTA0ODcsNDY5LjMxOTc4ODYxNDkwODksMjM4LjMzNDAzNTU4MDUyNDMzLDQ2MC45ODY0NTUyODE1NzU1LDIzOS4yNzAzNjUxNjg1MzkzLDQ1Mi42NTMxMjE5NDgyNDIyQzI0MC4yMDY2OTQ3NTY1NTQzLDQ0NC4zMTk3ODg2MTQ5MDg5LDIyOS41MzgzODk1MTMxMDg2Myw0MzUuOTg2NDU1MjgxNTc1NSwyMjQuMjA0MjM2ODkxMzg1OCw0MzEuODE5Nzg4NjE0OTA4OUwyMTguODcwMDg0MjY5NjYyOTMsNDI3LjY1MzEyMTk0ODI0MjIiIGNsYXNzPSJwYXRoIj48L3BhdGg+PGRlZnM+PG1hcmtlciBvcmllbnQ9ImF1dG8iIG1hcmtlckhlaWdodD0iNiIgbWFya2VyV2lkdGg9IjgiIG1hcmtlclVuaXRzPSJzdHJva2VXaWR0aCIgcmVmWT0iNSIgcmVmWD0iOSIgdmlld0JveD0iMCAwIDEwIDEwIiBpZD0iYXJyb3doZWFkNTUzIj48cGF0aCBzdHlsZT0ic3Ryb2tlLXdpZHRoOiAxOyBzdHJva2UtZGFzaGFycmF5OiAxLCAwOyIgY2xhc3M9ImFycm93aGVhZFBhdGgiIGQ9Ik0gMCAwIEwgMTAgNSBMIDAgMTAgeiI+PC9wYXRoPjwvbWFya2VyPjwvZGVmcz48L2c+PGcgc3R5bGU9Im9wYWNpdHk6IDE7IiBpZD0iTC10ZWFtMV9sZWFkZXItd29ya2VyMV8zIiBjbGFzcz0iZWRnZVBhdGggTFMtdGVhbTFfbGVhZGVyIExFLXdvcmtlcjFfMyI+PHBhdGggc3R5bGU9ImZpbGw6bm9uZSIgbWFya2VyLWVuZD0idXJsKCNhcnJvd2hlYWQ1NTQpIiBkPSJNMjI3LjYzNDEyOTIxMzQ4MzE2LDQyNy42NTMxMjE5NDgyNDIyTDIzNC44NDA5NDEwMTEyMzU5Nyw0MzEuODE5Nzg4NjE0OTA4OUMyNDIuMDQ3NzUyODA4OTg4NzgsNDM1Ljk4NjQ1NTI4MTU3NTUsMjU2LjQ2MTM3NjQwNDQ5NDQsNDQ0LjMxOTc4ODYxNDkwODksMjY4LjA2NjAxMTIzNTk1NTA1LDQ1Mi42NTMxMjE5NDgyNDIyQzI3OS42NzA2NDYwNjc0MTU3LDQ2MC45ODY0NTUyODE1NzU1LDI4OC40NjYyOTIxMzQ4MzE0Niw0NjkuMzE5Nzg4NjE0OTA4OSwyOTIuODY0MTE1MTY4NTM5Myw0NzMuNDg2NDU1MjgxNTc1NUwyOTcuMjYxOTM4MjAyMjQ3MTcsNDc3LjY1MzEyMTk0ODI0MjIiIGNsYXNzPSJwYXRoIj48L3BhdGg+PGRlZnM+PG1hcmtlciBvcmllbnQ9ImF1dG8iIG1hcmtlckhlaWdodD0iNiIgbWFya2VyV2lkdGg9IjgiIG1hcmtlclVuaXRzPSJzdHJva2VXaWR0aCIgcmVmWT0iNSIgcmVmWD0iOSIgdmlld0JveD0iMCAwIDEwIDEwIiBpZD0iYXJyb3doZWFkNTU0Ij48cGF0aCBzdHlsZT0ic3Ryb2tlLXdpZHRoOiAxOyBzdHJva2UtZGFzaGFycmF5OiAxLCAwOyIgY2xhc3M9ImFycm93aGVhZFBhdGgiIGQ9Ik0gMCAwIEwgMTAgNSBMIDAgMTAgeiI+PC9wYXRoPjwvbWFya2VyPjwvZGVmcz48L2c+PGcgc3R5bGU9Im9wYWNpdHk6IDE7IiBpZD0iTC13b3JrZXIxXzMtdGVhbTFfbGVhZGVyIiBjbGFzcz0iZWRnZVBhdGggTFMtd29ya2VyMV8zIExFLXRlYW0xX2xlYWRlciI+PHBhdGggc3R5bGU9ImZpbGw6bm9uZTtzdHJva2Utd2lkdGg6MnB4O3N0cm9rZS1kYXNoYXJyYXk6MzsiIG1hcmtlci1lbmQ9InVybCgjYXJyb3doZWFkNTU1KSIgZD0iTTM0Ny4xODk2MDY3NDE1NzMsNDc3LjY1MzEyMTk0ODI0MjJMMzUzLjQ2MDA4ODk1MTMxMDgsNDczLjQ4NjQ1NTI4MTU3NTVDMzU5LjczMDU3MTE2MTA0ODY2LDQ2OS4zMTk3ODg2MTQ5MDg5LDM3Mi4yNzE1MzU1ODA1MjQzNiw0NjAuOTg2NDU1MjgxNTc1NSwzNTcuMTI3OTU1MjkwMjYyMTUsNDUxLjgyODE5ODMzODI2Nzg0QzM0MS45ODQzNzUsNDQyLjY2OTk0MTM5NDk2MDIsMjk5LjE1NjI1LDQzMi42ODY3NjA4NDE2NzgxLDI3Ny43NDIxODc1LDQyNy42OTUxNzA1NjUwMzcxM0wyNTYuMzI4MTI1LDQyMi43MDM1ODAyODgzOTYwNCIgY2xhc3M9InBhdGgiPjwvcGF0aD48ZGVmcz48bWFya2VyIG9yaWVudD0iYXV0byIgbWFya2VySGVpZ2h0PSI2IiBtYXJrZXJXaWR0aD0iOCIgbWFya2VyVW5pdHM9InN0cm9rZVdpZHRoIiByZWZZPSI1IiByZWZYPSI5IiB2aWV3Qm94PSIwIDAgMTAgMTAiIGlkPSJhcnJvd2hlYWQ1NTUiPjxwYXRoIHN0eWxlPSJzdHJva2Utd2lkdGg6IDE7IHN0cm9rZS1kYXNoYXJyYXk6IDEsIDA7IiBjbGFzcz0iYXJyb3doZWFkUGF0aCIgZD0iTSAwIDAgTCAxMCA1IEwgMCAxMCB6Ij48L3BhdGg+PC9tYXJrZXI+PC9kZWZzPjwvZz48ZyBzdHlsZT0ib3BhY2l0eTogMTsiIGlkPSJMLXRlYW0xX2xlYWRlci1yb3V0ZXIiIGNsYXNzPSJlZGdlUGF0aCBMUy10ZWFtMV9sZWFkZXIgTEUtcm91dGVyIj48cGF0aCBzdHlsZT0iZmlsbDpub25lO3N0cm9rZS13aWR0aDoycHg7c3Ryb2tlLWRhc2hhcnJheTozOyIgbWFya2VyLWVuZD0idXJsKCNhcnJvd2hlYWQ1NTYpIiBkPSJNMjM5Ljg4MDIwODMzMzMzMzM0LDM4OC42NTMxMjE5NDgyNDIyTDI1My40MzY2MzE5NDQ0NDQ0NiwzODIuOTAzMTIxOTQ4MjQyMkMyNjYuOTkzMDU1NTU1NTU1NiwzNzcuMTUzMTIxOTQ4MjQyMiwyOTQuMTA1OTAyNzc3Nzc3NzcsMzY1LjY1MzEyMTk0ODI0MjIsMzQ0LjEzOTUxMzQ4MDM0NjEsMzQ4LjIxMzY0MjYyNzM0NTlDMzk0LjE3MzEyNDE4MjkxNDYsMzMwLjc3NDE2MzMwNjQ0OTcsNDY3LjEyNzQ5ODM2NTgyOTEsMzA3LjM5NTIwNDY2NDY1NzEsNTAzLjYwNDY4NTQ1NzI4NjQ1LDI5NS43MDU3MjUzNDM3NjA4M0w1NDAuMDgxODcyNTQ4NzQzNywyODQuMDE2MjQ2MDIyODY0NTUiIGNsYXNzPSJwYXRoIj48L3BhdGg+PGRlZnM+PG1hcmtlciBvcmllbnQ9ImF1dG8iIG1hcmtlckhlaWdodD0iNiIgbWFya2VyV2lkdGg9IjgiIG1hcmtlclVuaXRzPSJzdHJva2VXaWR0aCIgcmVmWT0iNSIgcmVmWD0iOSIgdmlld0JveD0iMCAwIDEwIDEwIiBpZD0iYXJyb3doZWFkNTU2Ij48cGF0aCBzdHlsZT0ic3Ryb2tlLXdpZHRoOiAxOyBzdHJva2UtZGFzaGFycmF5OiAxLCAwOyIgY2xhc3M9ImFycm93aGVhZFBhdGgiIGQ9Ik0gMCAwIEwgMTAgNSBMIDAgMTAgeiI+PC9wYXRoPjwvbWFya2VyPjwvZGVmcz48L2c+PGcgc3R5bGU9Im9wYWNpdHk6IDE7IiBpZD0iTC1yb3V0ZXItdGVhbTJfbGVhZGVyIiBjbGFzcz0iZWRnZVBhdGggTFMtcm91dGVyIExFLXRlYW0yX2xlYWRlciI+PHBhdGggc3R5bGU9ImZpbGw6bm9uZSIgbWFya2VyLWVuZD0idXJsKCNhcnJvd2hlYWQ1NTcpIiBkPSJNNTU2LjY1ODcyNzAyODg4OSwzMDAuNTkzMTAwNTAzMDA5OEw1NTAuMzQwNjA1ODU3NDA3NSwzMDkuNTE5NzcwNzQzODgxODVDNTQ0LjAyMjQ4NDY4NTkyNiwzMTguNDQ2NDQwOTg0NzUzOSw1MzEuMzg2MjQyMzQyOTYzLDMzNi4yOTk3ODE0NjY0OTgsNTMzLjI2Mzg2NzY5OTI1OTMsMzUwLjk3NjQ1MTcwNzM3MDEzQzUzNS4xNDE0OTMwNTU1NTU1LDM2NS42NTMxMjE5NDgyNDIyLDU1MS41MzI5ODYxMTExMTExLDM3Ny4xNTMxMjE5NDgyNDIyLDU1OS43Mjg3MzI2Mzg4ODg4LDM4Mi45MDMxMjE5NDgyNDIyTDU2Ny45MjQ0NzkxNjY2NjY2LDM4OC42NTMxMjE5NDgyNDIyIiBjbGFzcz0icGF0aCI+PC9wYXRoPjxkZWZzPjxtYXJrZXIgb3JpZW50PSJhdXRvIiBtYXJrZXJIZWlnaHQ9IjYiIG1hcmtlcldpZHRoPSI4IiBtYXJrZXJVbml0cz0ic3Ryb2tlV2lkdGgiIHJlZlk9IjUiIHJlZlg9IjkiIHZpZXdCb3g9IjAgMCAxMCAxMCIgaWQ9ImFycm93aGVhZDU1NyI+PHBhdGggc3R5bGU9InN0cm9rZS13aWR0aDogMTsgc3Ryb2tlLWRhc2hhcnJheTogMSwgMDsiIGNsYXNzPSJhcnJvd2hlYWRQYXRoIiBkPSJNIDAgMCBMIDEwIDUgTCAwIDEwIHoiPjwvcGF0aD48L21hcmtlcj48L2RlZnM+PC9nPjxnIHN0eWxlPSJvcGFjaXR5OiAxOyIgaWQ9IkwtdGVhbTJfbGVhZGVyLXdvcmtlcjJfMSIgY2xhc3M9ImVkZ2VQYXRoIExTLXRlYW0yX2xlYWRlciBMRS13b3JrZXIyXzEiPjxwYXRoIHN0eWxlPSJmaWxsOm5vbmUiIG1hcmtlci1lbmQ9InVybCgjYXJyb3doZWFkNTU4KSIgZD0iTTUzMy4yOTY4NzUsNDIyLjcwMzU4MDI4ODM5NjA0TDUxMS44ODI4MTI1LDQyNy42OTUxNzA1NjUwMzdDNDkwLjQ2ODc1LDQzMi42ODY3NjA4NDE2NzgxLDQ0Ny42NDA2MjUsNDQyLjY2OTk0MTM5NDk2MDIsNDMwLjYyNDM4NTUzMzcwNzksNDUxLjgyODE5ODMzODI2Nzg0QzQxMy42MDgxNDYwNjc0MTU3LDQ2MC45ODY0NTUyODE1NzU1LDQyMi40MDM3OTIxMzQ4MzE0Niw0NjkuMzE5Nzg4NjE0OTA4OSw0MjYuODAxNjE1MTY4NTM5Myw0NzMuNDg2NDU1MjgxNTc1NUw0MzEuMTk5NDM4MjAyMjQ3MTcsNDc3LjY1MzEyMTk0ODI0MjIiIGNsYXNzPSJwYXRoIj48L3BhdGg+PGRlZnM+PG1hcmtlciBvcmllbnQ9ImF1dG8iIG1hcmtlckhlaWdodD0iNiIgbWFya2VyV2lkdGg9IjgiIG1hcmtlclVuaXRzPSJzdHJva2VXaWR0aCIgcmVmWT0iNSIgcmVmWD0iOSIgdmlld0JveD0iMCAwIDEwIDEwIiBpZD0iYXJyb3doZWFkNTU4Ij48cGF0aCBzdHlsZT0ic3Ryb2tlLXdpZHRoOiAxOyBzdHJva2UtZGFzaGFycmF5OiAxLCAwOyIgY2xhc3M9ImFycm93aGVhZFBhdGgiIGQ9Ik0gMCAwIEwgMTAgNSBMIDAgMTAgeiI+PC9wYXRoPjwvbWFya2VyPjwvZGVmcz48L2c+PGcgc3R5bGU9Im9wYWNpdHk6IDE7IiBpZD0iTC13b3JrZXIyXzEtdGVhbTJfbGVhZGVyIiBjbGFzcz0iZWRnZVBhdGggTFMtd29ya2VyMl8xIExFLXRlYW0yX2xlYWRlciI+PHBhdGggc3R5bGU9ImZpbGw6bm9uZTtzdHJva2Utd2lkdGg6MnB4O3N0cm9rZS1kYXNoYXJyYXk6MzsiIG1hcmtlci1lbmQ9InVybCgjYXJyb3doZWFkNTU5KSIgZD0iTTQ4MS4xMjcxMDY3NDE1NzMsNDc3LjY1MzEyMTk0ODI0MjJMNDg3LjM5NzU4ODk1MTMxMDgsNDczLjQ4NjQ1NTI4MTU3NTVDNDkzLjY2ODA3MTE2MTA0ODY2LDQ2OS4zMTk3ODg2MTQ5MDg5LDUwNi4yMDkwMzU1ODA1MjQzNiw0NjAuOTg2NDU1MjgxNTc1NSw1MTkuNjg2MzI5NTg4MDE0OSw0NTIuNjUzMTIxOTQ4MjQyMkM1MzMuMTYzNjIzNTk1NTA1Nyw0NDQuMzE5Nzg4NjE0OTA4OSw1NDcuNTc3MjQ3MTkxMDExMiw0MzUuOTg2NDU1MjgxNTc1NSw1NTQuNzg0MDU4OTg4NzY0MSw0MzEuODE5Nzg4NjE0OTA4OUw1NjEuOTkwODcwNzg2NTE2OSw0MjcuNjUzMTIxOTQ4MjQyMiIgY2xhc3M9InBhdGgiPjwvcGF0aD48ZGVmcz48bWFya2VyIG9yaWVudD0iYXV0byIgbWFya2VySGVpZ2h0PSI2IiBtYXJrZXJXaWR0aD0iOCIgbWFya2VyVW5pdHM9InN0cm9rZVdpZHRoIiByZWZZPSI1IiByZWZYPSI5IiB2aWV3Qm94PSIwIDAgMTAgMTAiIGlkPSJhcnJvd2hlYWQ1NTkiPjxwYXRoIHN0eWxlPSJzdHJva2Utd2lkdGg6IDE7IHN0cm9rZS1kYXNoYXJyYXk6IDEsIDA7IiBjbGFzcz0iYXJyb3doZWFkUGF0aCIgZD0iTSAwIDAgTCAxMCA1IEwgMCAxMCB6Ij48L3BhdGg+PC9tYXJrZXI+PC9kZWZzPjwvZz48ZyBzdHlsZT0ib3BhY2l0eTogMTsiIGlkPSJMLXRlYW0yX2xlYWRlci13b3JrZXIyXzIiIGNsYXNzPSJlZGdlUGF0aCBMUy10ZWFtMl9sZWFkZXIgTEUtd29ya2VyMl8yIj48cGF0aCBzdHlsZT0iZmlsbDpub25lIiBtYXJrZXItZW5kPSJ1cmwoI2Fycm93aGVhZDU2MCkiIGQ9Ik01NzAuNzU0OTE1NzMwMzM3MSw0MjcuNjUzMTIxOTQ4MjQyMkw1NjUuNDIwNzYzMTA4NjE0Miw0MzEuODE5Nzg4NjE0OTA4OUM1NjAuMDg2NjEwNDg2ODkxMyw0MzUuOTg2NDU1MjgxNTc1NSw1NDkuNDE4MzA1MjQzNDQ1Niw0NDQuMzE5Nzg4NjE0OTA4OSw1NDguNDgxOTc1NjU1NDMwNyw0NTIuNjUzMTIxOTQ4MjQyMkM1NDcuNTQ1NjQ2MDY3NDE1OCw0NjAuOTg2NDU1MjgxNTc1NSw1NTYuMzQxMjkyMTM0ODMxNCw0NjkuMzE5Nzg4NjE0OTA4OSw1NjAuNzM5MTE1MTY4NTM5Myw0NzMuNDg2NDU1MjgxNTc1NUw1NjUuMTM2OTM4MjAyMjQ3Miw0NzcuNjUzMTIxOTQ4MjQyMiIgY2xhc3M9InBhdGgiPjwvcGF0aD48ZGVmcz48bWFya2VyIG9yaWVudD0iYXV0byIgbWFya2VySGVpZ2h0PSI2IiBtYXJrZXJXaWR0aD0iOCIgbWFya2VyVW5pdHM9InN0cm9rZVdpZHRoIiByZWZZPSI1IiByZWZYPSI5IiB2aWV3Qm94PSIwIDAgMTAgMTAiIGlkPSJhcnJvd2hlYWQ1NjAiPjxwYXRoIHN0eWxlPSJzdHJva2Utd2lkdGg6IDE7IHN0cm9rZS1kYXNoYXJyYXk6IDEsIDA7IiBjbGFzcz0iYXJyb3doZWFkUGF0aCIgZD0iTSAwIDAgTCAxMCA1IEwgMCAxMCB6Ij48L3BhdGg+PC9tYXJrZXI+PC9kZWZzPjwvZz48ZyBzdHlsZT0ib3BhY2l0eTogMTsiIGlkPSJMLXdvcmtlcjJfMi10ZWFtMl9sZWFkZXIiIGNsYXNzPSJlZGdlUGF0aCBMUy13b3JrZXIyXzIgTEUtdGVhbTJfbGVhZGVyIj48cGF0aCBzdHlsZT0iZmlsbDpub25lO3N0cm9rZS13aWR0aDoycHg7c3Ryb2tlLWRhc2hhcnJheTozOyIgbWFya2VyLWVuZD0idXJsKCNhcnJvd2hlYWQ1NjEpIiBkPSJNNjE1LjA2NDYwNjc0MTU3Myw0NzcuNjUzMTIxOTQ4MjQyMkw2MjEuMzM1MDg4OTUxMzEwOCw0NzMuNDg2NDU1MjgxNTc1NUM2MjcuNjA1NTcxMTYxMDQ4Nyw0NjkuMzE5Nzg4NjE0OTA4OSw2NDAuMTQ2NTM1NTgwNTI0Myw0NjAuOTg2NDU1MjgxNTc1NSw2NDEuMDgyODY1MTY4NTM5Myw0NTIuNjUzMTIxOTQ4MjQyMkM2NDIuMDE5MTk0NzU2NTU0NCw0NDQuMzE5Nzg4NjE0OTA4OSw2MzEuMzUwODg5NTEzMTA4Nyw0MzUuOTg2NDU1MjgxNTc1NSw2MjYuMDE2NzM2ODkxMzg1OCw0MzEuODE5Nzg4NjE0OTA4OUw2MjAuNjgyNTg0MjY5NjYyOSw0MjcuNjUzMTIxOTQ4MjQyMiIgY2xhc3M9InBhdGgiPjwvcGF0aD48ZGVmcz48bWFya2VyIG9yaWVudD0iYXV0byIgbWFya2VySGVpZ2h0PSI2IiBtYXJrZXJXaWR0aD0iOCIgbWFya2VyVW5pdHM9InN0cm9rZVdpZHRoIiByZWZZPSI1IiByZWZYPSI5IiB2aWV3Qm94PSIwIDAgMTAgMTAiIGlkPSJhcnJvd2hlYWQ1NjEiPjxwYXRoIHN0eWxlPSJzdHJva2Utd2lkdGg6IDE7IHN0cm9rZS1kYXNoYXJyYXk6IDEsIDA7IiBjbGFzcz0iYXJyb3doZWFkUGF0aCIgZD0iTSAwIDAgTCAxMCA1IEwgMCAxMCB6Ij48L3BhdGg+PC9tYXJrZXI+PC9kZWZzPjwvZz48ZyBzdHlsZT0ib3BhY2l0eTogMTsiIGlkPSJMLXRlYW0yX2xlYWRlci13b3JrZXIyXzMiIGNsYXNzPSJlZGdlUGF0aCBMUy10ZWFtMl9sZWFkZXIgTEUtd29ya2VyMl8zIj48cGF0aCBzdHlsZT0iZmlsbDpub25lIiBtYXJrZXItZW5kPSJ1cmwoI2Fycm93aGVhZDU2MikiIGQ9Ik02MjkuNDQ2NjI5MjEzNDgzMSw0MjcuNjUzMTIxOTQ4MjQyMkw2MzYuNjUzNDQxMDExMjM1OSw0MzEuODE5Nzg4NjE0OTA4OUM2NDMuODYwMjUyODA4OTg4OCw0MzUuOTg2NDU1MjgxNTc1NSw2NTguMjczODc2NDA0NDk0Myw0NDQuMzE5Nzg4NjE0OTA4OSw2NjkuODc4NTExMjM1OTU1LDQ1Mi42NTMxMjE5NDgyNDIyQzY4MS40ODMxNDYwNjc0MTU4LDQ2MC45ODY0NTUyODE1NzU1LDY5MC4yNzg3OTIxMzQ4MzE0LDQ2OS4zMTk3ODg2MTQ5MDg5LDY5NC42NzY2MTUxNjg1MzkzLDQ3My40ODY0NTUyODE1NzU1TDY5OS4wNzQ0MzgyMDIyNDcyLDQ3Ny42NTMxMjE5NDgyNDIyIiBjbGFzcz0icGF0aCI+PC9wYXRoPjxkZWZzPjxtYXJrZXIgb3JpZW50PSJhdXRvIiBtYXJrZXJIZWlnaHQ9IjYiIG1hcmtlcldpZHRoPSI4IiBtYXJrZXJVbml0cz0ic3Ryb2tlV2lkdGgiIHJlZlk9IjUiIHJlZlg9IjkiIHZpZXdCb3g9IjAgMCAxMCAxMCIgaWQ9ImFycm93aGVhZDU2MiI+PHBhdGggc3R5bGU9InN0cm9rZS13aWR0aDogMTsgc3Ryb2tlLWRhc2hhcnJheTogMSwgMDsiIGNsYXNzPSJhcnJvd2hlYWRQYXRoIiBkPSJNIDAgMCBMIDEwIDUgTCAwIDEwIHoiPjwvcGF0aD48L21hcmtlcj48L2RlZnM+PC9nPjxnIHN0eWxlPSJvcGFjaXR5OiAxOyIgaWQ9Ikwtd29ya2VyMl8zLXRlYW0yX2xlYWRlciIgY2xhc3M9ImVkZ2VQYXRoIExTLXdvcmtlcjJfMyBMRS10ZWFtMl9sZWFkZXIiPjxwYXRoIHN0eWxlPSJmaWxsOm5vbmU7c3Ryb2tlLXdpZHRoOjJweDtzdHJva2UtZGFzaGFycmF5OjM7IiBtYXJrZXItZW5kPSJ1cmwoI2Fycm93aGVhZDU2MykiIGQ9Ik03NTcuMTg3NTg3NzgwODk4OSw0NzcuNjUzMTIxOTQ4MjQyMkw3NjUuMjA3MTA0NDAwNzQ5LDQ3My40ODY0NTUyODE1NzU1Qzc3My4yMjY2MjEwMjA1OTkzLDQ2OS4zMTk3ODg2MTQ5MDg5LDc4OS4yNjU2NTQyNjAyOTk2LDQ2MC45ODY0NTUyODE1NzU1LDc3Mi43NTc4MjcxMzAxNDk4LDQ1MS42MTIwNTk0NjE0NDQwNkM3NTYuMjUsNDQyLjIzNzY2MzY0MTMxMjYsNzA3LjE5NTMxMjUsNDMxLjgyMjIwNTMzNDM4Myw2ODIuNjY3OTY4NzUsNDI2LjYxNDQ3NjE4MDkxODI1TDY1OC4xNDA2MjUsNDIxLjQwNjc0NzAyNzQ1MzQzIiBjbGFzcz0icGF0aCI+PC9wYXRoPjxkZWZzPjxtYXJrZXIgb3JpZW50PSJhdXRvIiBtYXJrZXJIZWlnaHQ9IjYiIG1hcmtlcldpZHRoPSI4IiBtYXJrZXJVbml0cz0ic3Ryb2tlV2lkdGgiIHJlZlk9IjUiIHJlZlg9IjkiIHZpZXdCb3g9IjAgMCAxMCAxMCIgaWQ9ImFycm93aGVhZDU2MyI+PHBhdGggc3R5bGU9InN0cm9rZS13aWR0aDogMTsgc3Ryb2tlLWRhc2hhcnJheTogMSwgMDsiIGNsYXNzPSJhcnJvd2hlYWRQYXRoIiBkPSJNIDAgMCBMIDEwIDUgTCAwIDEwIHoiPjwvcGF0aD48L21hcmtlcj48L2RlZnM+PC9nPjxnIHN0eWxlPSJvcGFjaXR5OiAxOyIgaWQ9IkwtdGVhbTJfbGVhZGVyLXJvdXRlciIgY2xhc3M9ImVkZ2VQYXRoIExTLXRlYW0yX2xlYWRlciBMRS1yb3V0ZXIiPjxwYXRoIHN0eWxlPSJmaWxsOm5vbmU7c3Ryb2tlLXdpZHRoOjJweDtzdHJva2UtZGFzaGFycmF5OjM7IiBtYXJrZXItZW5kPSJ1cmwoI2Fycm93aGVhZDU2NCkiIGQ9Ik02MzUuMzU3NzQ3Mzk1ODMzNCwzODguNjUzMTIxOTQ4MjQyMkw2NDcuMDQ2MTY5NzA0ODYxMiwzODIuOTAzMTIxOTQ4MjQyMkM2NTguNzM0NTkyMDEzODg4OSwzNzcuMTUzMTIxOTQ4MjQyMiw2ODIuMTExNDM2NjMxOTQ0NSwzNjUuNjUzMTIxOTQ4MjQyMiw2NzcuMTMxOTk2MTEzMzMzLDM0OS4zNTkzOTY5OTcxNTQzQzY3Mi4xNTI1NTU1OTQ3MjE1LDMzMy4wNjU2NzIwNDYwNjYzNyw2MzguODE2ODI5OTM5NDQzLDMxMS45NzgyMjIxNDM4OTA2LDYyMi4xNDg5NjcxMTE4MDM4LDMwMS40MzQ0OTcxOTI4MDI2N0w2MDUuNDgxMTA0Mjg0MTY0NSwyOTAuODkwNzcyMjQxNzE0OCIgY2xhc3M9InBhdGgiPjwvcGF0aD48ZGVmcz48bWFya2VyIG9yaWVudD0iYXV0byIgbWFya2VySGVpZ2h0PSI2IiBtYXJrZXJXaWR0aD0iOCIgbWFya2VyVW5pdHM9InN0cm9rZVdpZHRoIiByZWZZPSI1IiByZWZYPSI5IiB2aWV3Qm94PSIwIDAgMTAgMTAiIGlkPSJhcnJvd2hlYWQ1NjQiPjxwYXRoIHN0eWxlPSJzdHJva2Utd2lkdGg6IDE7IHN0cm9rZS1kYXNoYXJyYXk6IDEsIDA7IiBjbGFzcz0iYXJyb3doZWFkUGF0aCIgZD0iTSAwIDAgTCAxMCA1IEwgMCAxMCB6Ij48L3BhdGg+PC9tYXJrZXI+PC9kZWZzPjwvZz48ZyBzdHlsZT0ib3BhY2l0eTogMTsiIGlkPSJMLWxlYWRlci1hcHByb3ZhbCIgY2xhc3M9ImVkZ2VQYXRoIExTLWxlYWRlciBMRS1hcHByb3ZhbCI+PHBhdGggc3R5bGU9ImZpbGw6bm9uZSIgbWFya2VyLWVuZD0idXJsKCNhcnJvd2hlYWQ1NjUpIiBkPSJNNzY5LjgzMDE4NjYzMTk0NDUsMTU1TDc3OS4xMTY5NTI0MDE2MjA0LDE2MC43NUM3ODguNDAzNzE4MTcxMjk2MiwxNjYuNSw4MDYuOTc3MjQ5NzEwNjQ4MiwxNzgsODI1Ljg1NDQxOTYyMDM0ODQsMTk0LjIyMTA5MzQ5NTY4Njg2Qzg0NC43MzE1ODk1MzAwNDg1LDIxMC40NDIxODY5OTEzNzM3LDg2My45MTIzOTc4MTAwOTcsMjMxLjM4NDM3Mzk4Mjc0NzQsODczLjUwMjgwMTk1MDEyMTEsMjQxLjg1NTQ2NzQ3ODQzNDI0TDg4My4wOTMyMDYwOTAxNDU1LDI1Mi4zMjY1NjA5NzQxMjExIiBjbGFzcz0icGF0aCI+PC9wYXRoPjxkZWZzPjxtYXJrZXIgb3JpZW50PSJhdXRvIiBtYXJrZXJIZWlnaHQ9IjYiIG1hcmtlcldpZHRoPSI4IiBtYXJrZXJVbml0cz0ic3Ryb2tlV2lkdGgiIHJlZlk9IjUiIHJlZlg9IjkiIHZpZXdCb3g9IjAgMCAxMCAxMCIgaWQ9ImFycm93aGVhZDU2NSI+PHBhdGggc3R5bGU9InN0cm9rZS13aWR0aDogMTsgc3Ryb2tlLWRhc2hhcnJheTogMSwgMDsiIGNsYXNzPSJhcnJvd2hlYWRQYXRoIiBkPSJNIDAgMCBMIDEwIDUgTCAwIDEwIHoiPjwvcGF0aD48L21hcmtlcj48L2RlZnM+PC9nPjxnIHN0eWxlPSJvcGFjaXR5OiAxOyIgaWQ9IkwtYXBwcm92YWwtbGVhZGVyIiBjbGFzcz0iZWRnZVBhdGggTFMtYXBwcm92YWwgTEUtbGVhZGVyIj48cGF0aCBzdHlsZT0iZmlsbDpub25lO3N0cm9rZS13aWR0aDoycHg7c3Ryb2tlLWRhc2hhcnJheTozOyIgbWFya2VyLWVuZD0idXJsKCNhcnJvd2hlYWQ1NjYpIiBkPSJNOTE4LjgxMzA0MzkwOTg1NDUsMjUyLjMyNjU2MDk3NDEyMTFMOTI4LjQwMzQ0ODA0OTg3ODksMjQxLjg1NTQ2NzQ3ODQzNDI0QzkzNy45OTM4NTIxODk5MDMsMjMxLjM4NDM3Mzk4Mjc0NzQsOTU3LjE3NDY2MDQ2OTk1MTUsMjEwLjQ0MjE4Njk5MTM3MzcsOTMyLjg1Mjk1NTIzNDk3NTksMTkyLjI3NzM4MDcyOTIwNTY1QzkwOC41MzEyNSwxNzQuMTEyNTc0NDY3MDM3NTgsODQwLjcwNzAzMTI1LDE1OC43MjUxNDg5MzQwNzUxMiw4MDYuNzk0OTIxODc1LDE1MS4wMzE0MzYxNjc1OTM5TDc3Mi44ODI4MTI1LDE0My4zMzc3MjM0MDExMTI3IiBjbGFzcz0icGF0aCI+PC9wYXRoPjxkZWZzPjxtYXJrZXIgb3JpZW50PSJhdXRvIiBtYXJrZXJIZWlnaHQ9IjYiIG1hcmtlcldpZHRoPSI4IiBtYXJrZXJVbml0cz0ic3Ryb2tlV2lkdGgiIHJlZlk9IjUiIHJlZlg9IjkiIHZpZXdCb3g9IjAgMCAxMCAxMCIgaWQ9ImFycm93aGVhZDU2NiI+PHBhdGggc3R5bGU9InN0cm9rZS13aWR0aDogMTsgc3Ryb2tlLWRhc2hhcnJheTogMSwgMDsiIGNsYXNzPSJhcnJvd2hlYWRQYXRoIiBkPSJNIDAgMCBMIDEwIDUgTCAwIDEwIHoiPjwvcGF0aD48L21hcmtlcj48L2RlZnM+PC9nPjxnIHN0eWxlPSJvcGFjaXR5OiAxOyIgaWQ9IkwtYXBwcm92YWwtX19FTkRfXyIgY2xhc3M9ImVkZ2VQYXRoIExTLWFwcHJvdmFsIExFLV9fRU5EX18iPjxwYXRoIHN0eWxlPSJmaWxsOm5vbmUiIG1hcmtlci1lbmQ9InVybCgjYXJyb3doZWFkNTY3KSIgZD0iTTkwMC45NTMxMjUsMjkxLjMyNjU2MDk3NDEyMTFMOTAwLjk1MzEyNSwzMDEuNzk3NjU0NDY5ODA3OUM5MDAuOTUzMTI1LDMxMi4yNjg3NDc5NjU0OTQ4LDkwMC45NTMxMjUsMzMzLjIxMDkzNDk1Njg2ODQ3LDkwMC45NTMxMjUsMzQ5LjQzMjAyODQ1MjU1NTM2QzkwMC45NTMxMjUsMzY1LjY1MzEyMTk0ODI0MjIsOTAwLjk1MzEyNSwzNzcuMTUzMTIxOTQ4MjQyMiw5MDAuOTUzMTI1LDM4Mi45MDMxMjE5NDgyNDIyTDkwMC45NTMxMjUsMzg4LjY1MzEyMTk0ODI0MjIiIGNsYXNzPSJwYXRoIj48L3BhdGg+PGRlZnM+PG1hcmtlciBvcmllbnQ9ImF1dG8iIG1hcmtlckhlaWdodD0iNiIgbWFya2VyV2lkdGg9IjgiIG1hcmtlclVuaXRzPSJzdHJva2VXaWR0aCIgcmVmWT0iNSIgcmVmWD0iOSIgdmlld0JveD0iMCAwIDEwIDEwIiBpZD0iYXJyb3doZWFkNTY3Ij48cGF0aCBzdHlsZT0ic3Ryb2tlLXdpZHRoOiAxOyBzdHJva2UtZGFzaGFycmF5OiAxLCAwOyIgY2xhc3M9ImFycm93aGVhZFBhdGgiIGQ9Ik0gMCAwIEwgMTAgNSBMIDAgMTAgeiI+PC9wYXRoPjwvbWFya2VyPjwvZGVmcz48L2c+PGcgc3R5bGU9Im9wYWNpdHk6IDE7IiBpZD0iTC1fX0VORF9fLW9wdGltaXplZF9wcm9tcHQiIGNsYXNzPSJlZGdlUGF0aCBMUy1fX0VORF9fIExFLW9wdGltaXplZF9wcm9tcHQiPjxwYXRoIHN0eWxlPSJmaWxsOm5vbmUiIG1hcmtlci1lbmQ9InVybCgjYXJyb3doZWFkNTY4KSIgZD0iTTkwMC45NTMxMjUsNDI3LjY1MzEyMTk0ODI0MjJMOTAwLjk1MzEyNSw0MzEuODE5Nzg4NjE0OTA4OUM5MDAuOTUzMTI1LDQzNS45ODY0NTUyODE1NzU1LDkwMC45NTMxMjUsNDQ0LjMxOTc4ODYxNDkwODksOTAwLjk1MzEyNSw0NTIuNjUzMTIxOTQ4MjQyMkM5MDAuOTUzMTI1LDQ2MC45ODY0NTUyODE1NzU1LDkwMC45NTMxMjUsNDY5LjMxOTc4ODYxNDkwODksOTAwLjk1MzEyNSw0NzMuNDg2NDU1MjgxNTc1NUw5MDAuOTUzMTI1LDQ3Ny42NTMxMjE5NDgyNDIyIiBjbGFzcz0icGF0aCI+PC9wYXRoPjxkZWZzPjxtYXJrZXIgb3JpZW50PSJhdXRvIiBtYXJrZXJIZWlnaHQ9IjYiIG1hcmtlcldpZHRoPSI4IiBtYXJrZXJVbml0cz0ic3Ryb2tlV2lkdGgiIHJlZlk9IjUiIHJlZlg9IjkiIHZpZXdCb3g9IjAgMCAxMCAxMCIgaWQ9ImFycm93aGVhZDU2OCI+PHBhdGggc3R5bGU9InN0cm9rZS13aWR0aDogMTsgc3Ryb2tlLWRhc2hhcnJheTogMSwgMDsiIGNsYXNzPSJhcnJvd2hlYWRQYXRoIiBkPSJNIDAgMCBMIDEwIDUgTCAwIDEwIHoiPjwvcGF0aD48L21hcmtlcj48L2RlZnM+PC9nPjwvZz48ZyBjbGFzcz0iZWRnZUxhYmVscyI+PGcgc3R5bGU9Im9wYWNpdHk6IDE7IiB0cmFuc2Zvcm09InRyYW5zbGF0ZSg3MzguMzM1OTM3NSw4MS41KSIgY2xhc3M9ImVkZ2VMYWJlbCI+PGcgY2xhc3M9ImxhYmVsIiB0cmFuc2Zvcm09InRyYW5zbGF0ZSgtNDQuNSwtOS41KSI+PHJlY3QgaGVpZ2h0PSIxOSIgd2lkdGg9Ijg5IiByeT0iMCIgcng9IjAiPjwvcmVjdD48dGV4dD48dHNwYW4geD0iMSIgZHk9IjFlbSIgeG1sOnNwYWNlPSJwcmVzZXJ2ZSI+QmFzZSBQcm9tcHQ8L3RzcGFuPjwvdGV4dD48L2c+PC9nPjxnIHN0eWxlPSJvcGFjaXR5OiAxOyIgdHJhbnNmb3JtPSJ0cmFuc2xhdGUoNDU1LjYwMTU2MjUsMTg5LjUpIiBjbGFzcz0iZWRnZUxhYmVsIj48ZyBjbGFzcz0ibGFiZWwiIHRyYW5zZm9ybT0idHJhbnNsYXRlKC01NC4yODEyNSwtOS41KSI+PHJlY3QgaGVpZ2h0PSIxOSIgd2lkdGg9IjEwOC41NjI1IiByeT0iMCIgcng9IjAiPjwvcmVjdD48dGV4dD48dHNwYW4geD0iMSIgZHk9IjFlbSIgeG1sOnNwYWNlPSJwcmVzZXJ2ZSI+VGVhbSBTZWxlY3Rpb248L3RzcGFuPjwvdGV4dD48L2c+PC9nPjxnIHN0eWxlPSJvcGFjaXR5OiAxOyIgdHJhbnNmb3JtPSJ0cmFuc2xhdGUoNjc3Ljg3MTA5Mzc1LDE4OS41KSIgY2xhc3M9ImVkZ2VMYWJlbCI+PGcgY2xhc3M9ImxhYmVsIiB0cmFuc2Zvcm09InRyYW5zbGF0ZSgtNjkuMjEwOTM3NSwtOS41KSI+PHJlY3QgaGVpZ2h0PSIxOSIgd2lkdGg9IjEzOC40MjE4NzUiIHJ5PSIwIiByeD0iMCI+PC9yZWN0Pjx0ZXh0Pjx0c3BhbiB4PSIxIiBkeT0iMWVtIiB4bWw6c3BhY2U9InByZXNlcnZlIj5GZWVkYmFjayBTdW1tYXJ5PC90c3Bhbj48L3RleHQ+PC9nPjwvZz48ZyBzdHlsZT0ib3BhY2l0eTogMTsiIHRyYW5zZm9ybT0iIiBjbGFzcz0iZWRnZUxhYmVsIj48ZyBjbGFzcz0ibGFiZWwiIHRyYW5zZm9ybT0idHJhbnNsYXRlKDAsMCkiPjxyZWN0IGhlaWdodD0iMCIgd2lkdGg9IjAiIHJ5PSIwIiByeD0iMCI+PC9yZWN0Pjx0ZXh0Pjx0c3BhbiB4PSIxIiBkeT0iMWVtIiB4bWw6c3BhY2U9InByZXNlcnZlIj48L3RzcGFuPjwvdGV4dD48L2c+PC9nPjxnIHN0eWxlPSJvcGFjaXR5OiAxOyIgdHJhbnNmb3JtPSIiIGNsYXNzPSJlZGdlTGFiZWwiPjxnIGNsYXNzPSJsYWJlbCIgdHJhbnNmb3JtPSJ0cmFuc2xhdGUoMCwwKSI+PHJlY3QgaGVpZ2h0PSIwIiB3aWR0aD0iMCIgcnk9IjAiIHJ4PSIwIj48L3JlY3Q+PHRleHQ+PHRzcGFuIHg9IjEiIGR5PSIxZW0iIHhtbDpzcGFjZT0icHJlc2VydmUiPjwvdHNwYW4+PC90ZXh0PjwvZz48L2c+PGcgc3R5bGU9Im9wYWNpdHk6IDE7IiB0cmFuc2Zvcm09IiIgY2xhc3M9ImVkZ2VMYWJlbCI+PGcgY2xhc3M9ImxhYmVsIiB0cmFuc2Zvcm09InRyYW5zbGF0ZSgwLDApIj48cmVjdCBoZWlnaHQ9IjAiIHdpZHRoPSIwIiByeT0iMCIgcng9IjAiPjwvcmVjdD48dGV4dD48dHNwYW4geD0iMSIgZHk9IjFlbSIgeG1sOnNwYWNlPSJwcmVzZXJ2ZSI+PC90c3Bhbj48L3RleHQ+PC9nPjwvZz48ZyBzdHlsZT0ib3BhY2l0eTogMTsiIHRyYW5zZm9ybT0iIiBjbGFzcz0iZWRnZUxhYmVsIj48ZyBjbGFzcz0ibGFiZWwiIHRyYW5zZm9ybT0idHJhbnNsYXRlKDAsMCkiPjxyZWN0IGhlaWdodD0iMCIgd2lkdGg9IjAiIHJ5PSIwIiByeD0iMCI+PC9yZWN0Pjx0ZXh0Pjx0c3BhbiB4PSIxIiBkeT0iMWVtIiB4bWw6c3BhY2U9InByZXNlcnZlIj48L3RzcGFuPjwvdGV4dD48L2c+PC9nPjxnIHN0eWxlPSJvcGFjaXR5OiAxOyIgdHJhbnNmb3JtPSIiIGNsYXNzPSJlZGdlTGFiZWwiPjxnIGNsYXNzPSJsYWJlbCIgdHJhbnNmb3JtPSJ0cmFuc2xhdGUoMCwwKSI+PHJlY3QgaGVpZ2h0PSIwIiB3aWR0aD0iMCIgcnk9IjAiIHJ4PSIwIj48L3JlY3Q+PHRleHQ+PHRzcGFuIHg9IjEiIGR5PSIxZW0iIHhtbDpzcGFjZT0icHJlc2VydmUiPjwvdHNwYW4+PC90ZXh0PjwvZz48L2c+PGcgc3R5bGU9Im9wYWNpdHk6IDE7IiB0cmFuc2Zvcm09IiIgY2xhc3M9ImVkZ2VMYWJlbCI+PGcgY2xhc3M9ImxhYmVsIiB0cmFuc2Zvcm09InRyYW5zbGF0ZSgwLDApIj48cmVjdCBoZWlnaHQ9IjAiIHdpZHRoPSIwIiByeT0iMCIgcng9IjAiPjwvcmVjdD48dGV4dD48dHNwYW4geD0iMSIgZHk9IjFlbSIgeG1sOnNwYWNlPSJwcmVzZXJ2ZSI+PC90c3Bhbj48L3RleHQ+PC9nPjwvZz48ZyBzdHlsZT0ib3BhY2l0eTogMTsiIHRyYW5zZm9ybT0iIiBjbGFzcz0iZWRnZUxhYmVsIj48ZyBjbGFzcz0ibGFiZWwiIHRyYW5zZm9ybT0idHJhbnNsYXRlKDAsMCkiPjxyZWN0IGhlaWdodD0iMCIgd2lkdGg9IjAiIHJ5PSIwIiByeD0iMCI+PC9yZWN0Pjx0ZXh0Pjx0c3BhbiB4PSIxIiBkeT0iMWVtIiB4bWw6c3BhY2U9InByZXNlcnZlIj48L3RzcGFuPjwvdGV4dD48L2c+PC9nPjxnIHN0eWxlPSJvcGFjaXR5OiAxOyIgdHJhbnNmb3JtPSIiIGNsYXNzPSJlZGdlTGFiZWwiPjxnIGNsYXNzPSJsYWJlbCIgdHJhbnNmb3JtPSJ0cmFuc2xhdGUoMCwwKSI+PHJlY3QgaGVpZ2h0PSIwIiB3aWR0aD0iMCIgcnk9IjAiIHJ4PSIwIj48L3JlY3Q+PHRleHQ+PHRzcGFuIHg9IjEiIGR5PSIxZW0iIHhtbDpzcGFjZT0icHJlc2VydmUiPjwvdHNwYW4+PC90ZXh0PjwvZz48L2c+PGcgc3R5bGU9Im9wYWNpdHk6IDE7IiB0cmFuc2Zvcm09IiIgY2xhc3M9ImVkZ2VMYWJlbCI+PGcgY2xhc3M9ImxhYmVsIiB0cmFuc2Zvcm09InRyYW5zbGF0ZSgwLDApIj48cmVjdCBoZWlnaHQ9IjAiIHdpZHRoPSIwIiByeT0iMCIgcng9IjAiPjwvcmVjdD48dGV4dD48dHNwYW4geD0iMSIgZHk9IjFlbSIgeG1sOnNwYWNlPSJwcmVzZXJ2ZSI+PC90c3Bhbj48L3RleHQ+PC9nPjwvZz48ZyBzdHlsZT0ib3BhY2l0eTogMTsiIHRyYW5zZm9ybT0iIiBjbGFzcz0iZWRnZUxhYmVsIj48ZyBjbGFzcz0ibGFiZWwiIHRyYW5zZm9ybT0idHJhbnNsYXRlKDAsMCkiPjxyZWN0IGhlaWdodD0iMCIgd2lkdGg9IjAiIHJ5PSIwIiByeD0iMCI+PC9yZWN0Pjx0ZXh0Pjx0c3BhbiB4PSIxIiBkeT0iMWVtIiB4bWw6c3BhY2U9InByZXNlcnZlIj48L3RzcGFuPjwvdGV4dD48L2c+PC9nPjxnIHN0eWxlPSJvcGFjaXR5OiAxOyIgdHJhbnNmb3JtPSIiIGNsYXNzPSJlZGdlTGFiZWwiPjxnIGNsYXNzPSJsYWJlbCIgdHJhbnNmb3JtPSJ0cmFuc2xhdGUoMCwwKSI+PHJlY3QgaGVpZ2h0PSIwIiB3aWR0aD0iMCIgcnk9IjAiIHJ4PSIwIj48L3JlY3Q+PHRleHQ+PHRzcGFuIHg9IjEiIGR5PSIxZW0iIHhtbDpzcGFjZT0icHJlc2VydmUiPjwvdHNwYW4+PC90ZXh0PjwvZz48L2c+PGcgc3R5bGU9Im9wYWNpdHk6IDE7IiB0cmFuc2Zvcm09IiIgY2xhc3M9ImVkZ2VMYWJlbCI+PGcgY2xhc3M9ImxhYmVsIiB0cmFuc2Zvcm09InRyYW5zbGF0ZSgwLDApIj48cmVjdCBoZWlnaHQ9IjAiIHdpZHRoPSIwIiByeT0iMCIgcng9IjAiPjwvcmVjdD48dGV4dD48dHNwYW4geD0iMSIgZHk9IjFlbSIgeG1sOnNwYWNlPSJwcmVzZXJ2ZSI+PC90c3Bhbj48L3RleHQ+PC9nPjwvZz48ZyBzdHlsZT0ib3BhY2l0eTogMTsiIHRyYW5zZm9ybT0iIiBjbGFzcz0iZWRnZUxhYmVsIj48ZyBjbGFzcz0ibGFiZWwiIHRyYW5zZm9ybT0idHJhbnNsYXRlKDAsMCkiPjxyZWN0IGhlaWdodD0iMCIgd2lkdGg9IjAiIHJ5PSIwIiByeD0iMCI+PC9yZWN0Pjx0ZXh0Pjx0c3BhbiB4PSIxIiBkeT0iMWVtIiB4bWw6c3BhY2U9InByZXNlcnZlIj48L3RzcGFuPjwvdGV4dD48L2c+PC9nPjxnIHN0eWxlPSJvcGFjaXR5OiAxOyIgdHJhbnNmb3JtPSIiIGNsYXNzPSJlZGdlTGFiZWwiPjxnIGNsYXNzPSJsYWJlbCIgdHJhbnNmb3JtPSJ0cmFuc2xhdGUoMCwwKSI+PHJlY3QgaGVpZ2h0PSIwIiB3aWR0aD0iMCIgcnk9IjAiIHJ4PSIwIj48L3JlY3Q+PHRleHQ+PHRzcGFuIHg9IjEiIGR5PSIxZW0iIHhtbDpzcGFjZT0icHJlc2VydmUiPjwvdHNwYW4+PC90ZXh0PjwvZz48L2c+PGcgc3R5bGU9Im9wYWNpdHk6IDE7IiB0cmFuc2Zvcm09IiIgY2xhc3M9ImVkZ2VMYWJlbCI+PGcgY2xhc3M9ImxhYmVsIiB0cmFuc2Zvcm09InRyYW5zbGF0ZSgwLDApIj48cmVjdCBoZWlnaHQ9IjAiIHdpZHRoPSIwIiByeT0iMCIgcng9IjAiPjwvcmVjdD48dGV4dD48dHNwYW4geD0iMSIgZHk9IjFlbSIgeG1sOnNwYWNlPSJwcmVzZXJ2ZSI+PC90c3Bhbj48L3RleHQ+PC9nPjwvZz48ZyBzdHlsZT0ib3BhY2l0eTogMTsiIHRyYW5zZm9ybT0iIiBjbGFzcz0iZWRnZUxhYmVsIj48ZyBjbGFzcz0ibGFiZWwiIHRyYW5zZm9ybT0idHJhbnNsYXRlKDAsMCkiPjxyZWN0IGhlaWdodD0iMCIgd2lkdGg9IjAiIHJ5PSIwIiByeD0iMCI+PC9yZWN0Pjx0ZXh0Pjx0c3BhbiB4PSIxIiBkeT0iMWVtIiB4bWw6c3BhY2U9InByZXNlcnZlIj48L3RzcGFuPjwvdGV4dD48L2c+PC9nPjxnIHN0eWxlPSJvcGFjaXR5OiAxOyIgdHJhbnNmb3JtPSJ0cmFuc2xhdGUoODI1LjU1MDc4MTI1LDE4OS41KSIgY2xhc3M9ImVkZ2VMYWJlbCI+PGcgY2xhc3M9ImxhYmVsIiB0cmFuc2Zvcm09InRyYW5zbGF0ZSgtNTguNDY4NzUsLTkuNSkiPjxyZWN0IGhlaWdodD0iMTkiIHdpZHRoPSIxMTYuOTM3NSIgcnk9IjAiIHJ4PSIwIj48L3JlY3Q+PHRleHQ+PHRzcGFuIHg9IjEiIGR5PSIxZW0iIHhtbDpzcGFjZT0icHJlc2VydmUiPlVwZGF0ZWQgUHJvbXB0PC90c3Bhbj48L3RleHQ+PC9nPjwvZz48ZyBzdHlsZT0ib3BhY2l0eTogMTsiIHRyYW5zZm9ybT0idHJhbnNsYXRlKDk3Ni4zNTU0Njg3NSwxODkuNSkiIGNsYXNzPSJlZGdlTGFiZWwiPjxnIGNsYXNzPSJsYWJlbCIgdHJhbnNmb3JtPSJ0cmFuc2xhdGUoLTcyLjMzNTkzNzUsLTkuNSkiPjxyZWN0IGhlaWdodD0iMTkiIHdpZHRoPSIxNDQuNjcxODc1IiByeT0iMCIgcng9IjAiPjwvcmVjdD48dGV4dD48dHNwYW4geD0iMSIgZHk9IjFlbSIgeG1sOnNwYWNlPSJwcmVzZXJ2ZSI+Q29uZmxpY3RpbmcgQXBwcm92YWw8L3RzcGFuPjwvdGV4dD48L2c+PC9nPjxnIHN0eWxlPSJvcGFjaXR5OiAxOyIgdHJhbnNmb3JtPSJ0cmFuc2xhdGUoOTAwLjk1MzEyNSwzNTQuMTUzMTIxOTQ4MjQyMikiIGNsYXNzPSJlZGdlTGFiZWwiPjxnIGNsYXNzPSJsYWJlbCIgdHJhbnNmb3JtPSJ0cmFuc2xhdGUoLTcyLjQ0NTMxMjUsLTkuNSkiPjxyZWN0IGhlaWdodD0iMTkiIHdpZHRoPSIxNDQuODkwNjI1IiByeT0iMCIgcng9IjAiPjwvcmVjdD48dGV4dD48dHNwYW4geD0iMSIgZHk9IjFlbSIgeG1sOnNwYWNlPSJwcmVzZXJ2ZSI+VW5hbmltb3VzIEFwcHJvdmFsPC90c3Bhbj48L3RleHQ+PC9nPjwvZz48ZyBzdHlsZT0ib3BhY2l0eTogMTsiIHRyYW5zZm9ybT0iIiBjbGFzcz0iZWRnZUxhYmVsIj48ZyBjbGFzcz0ibGFiZWwiIHRyYW5zZm9ybT0idHJhbnNsYXRlKDAsMCkiPjxyZWN0IGhlaWdodD0iMCIgd2lkdGg9IjAiIHJ5PSIwIiByeD0iMCI+PC9yZWN0Pjx0ZXh0Pjx0c3BhbiB4PSIxIiBkeT0iMWVtIiB4bWw6c3BhY2U9InByZXNlcnZlIj48L3RzcGFuPjwvdGV4dD48L2c+PC9nPjwvZz48ZyBjbGFzcz0ibm9kZXMiPjxnIHN0eWxlPSJvcGFjaXR5OiAxOyIgdHJhbnNmb3JtPSJ0cmFuc2xhdGUoNzM4LjMzNTkzNzUsMjcuNSkiIGlkPSJmbG93Y2hhcnQtX19TVEFSVF9fLTkxNCIgY2xhc3M9Im5vZGUgZGVmYXVsdCI+PHJlY3QgY2xhc3M9ImxhYmVsLWNvbnRhaW5lciIgaGVpZ2h0PSIzOSIgd2lkdGg9Ijk2LjQ2MDkzNzUiIHk9Ii0xOS41IiB4PSItNDguMjMwNDY4NzUiIHJ5PSIwIiByeD0iMCI+PC9yZWN0PjxnIHRyYW5zZm9ybT0idHJhbnNsYXRlKDAsMCkiIGNsYXNzPSJsYWJlbCI+PGcgdHJhbnNmb3JtPSJ0cmFuc2xhdGUoLTM4LjIzMDQ2ODc1LC05LjUpIj48dGV4dCBzdHlsZT0iIj48dHNwYW4geD0iMSIgZHk9IjFlbSIgeG1sOnNwYWNlPSJwcmVzZXJ2ZSI+X19TVEFSVF9fPC90c3Bhbj48L3RleHQ+PC9nPjwvZz48L2c+PGcgc3R5bGU9Im9wYWNpdHk6IDE7IiB0cmFuc2Zvcm09InRyYW5zbGF0ZSg3MzguMzM1OTM3NSwxMzUuNSkiIGlkPSJmbG93Y2hhcnQtbGVhZGVyLTkxNSIgY2xhc3M9Im5vZGUgZGVmYXVsdCI+PHJlY3QgY2xhc3M9ImxhYmVsLWNvbnRhaW5lciIgaGVpZ2h0PSIzOSIgd2lkdGg9IjY5LjA5Mzc1IiB5PSItMTkuNSIgeD0iLTM0LjU0Njg3NSIgcnk9IjUiIHJ4PSI1Ij48L3JlY3Q+PGcgdHJhbnNmb3JtPSJ0cmFuc2xhdGUoMCwwKSIgY2xhc3M9ImxhYmVsIj48ZyB0cmFuc2Zvcm09InRyYW5zbGF0ZSgtMjQuNTQ2ODc1LC05LjUpIj48dGV4dCBzdHlsZT0iIj48dHNwYW4geD0iMSIgZHk9IjFlbSIgeG1sOnNwYWNlPSJwcmVzZXJ2ZSI+TGVhZGVyPC90c3Bhbj48L3RleHQ+PC9nPjwvZz48L2c+PGcgc3R5bGU9Im9wYWNpdHk6IDE7IiB0cmFuc2Zvcm09InRyYW5zbGF0ZSg1NzUuNzE4NzUsMjcxLjgyNjU2MDk3NDEyMTEpIiBpZD0iZmxvd2NoYXJ0LXJvdXRlci05MTciIGNsYXNzPSJub2RlIGRlZmF1bHQiPjxwb2x5Z29uIGNsYXNzPSJsYWJlbC1jb250YWluZXIiIHRyYW5zZm9ybT0idHJhbnNsYXRlKC00Ny44MjY1NjI1LDQ3LjgyNjU2MjUpIiBwb2ludHM9IjQ3LjgyNjU2MjUsMCA5NS42NTMxMjUsLTQ3LjgyNjU2MjUgNDcuODI2NTYyNSwtOTUuNjUzMTI1IDAsLTQ3LjgyNjU2MjUiPjwvcG9seWdvbj48ZyB0cmFuc2Zvcm09InRyYW5zbGF0ZSgwLDApIiBjbGFzcz0ibGFiZWwiPjxnIHRyYW5zZm9ybT0idHJhbnNsYXRlKC0yMy42NDA2MjUsLTkuNSkiPjx0ZXh0IHN0eWxlPSIiPjx0c3BhbiB4PSIxIiBkeT0iMWVtIiB4bWw6c3BhY2U9InByZXNlcnZlIj5Sb3V0ZXI8L3RzcGFuPjwvdGV4dD48L2c+PC9nPjwvZz48ZyBzdHlsZT0ib3BhY2l0eTogMTsiIHRyYW5zZm9ybT0idHJhbnNsYXRlKDE5My45MDYyNSw0MDguMTUzMTIxOTQ4MjQyMikiIGlkPSJmbG93Y2hhcnQtdGVhbTFfbGVhZGVyLTkyMSIgY2xhc3M9Im5vZGUgZGVmYXVsdCI+PHJlY3QgY2xhc3M9ImxhYmVsLWNvbnRhaW5lciIgaGVpZ2h0PSIzOSIgd2lkdGg9IjEyNC44NDM3NSIgeT0iLTE5LjUiIHg9Ii02Mi40MjE4NzUiIHJ5PSI1IiByeD0iNSI+PC9yZWN0PjxnIHRyYW5zZm9ybT0idHJhbnNsYXRlKDAsMCkiIGNsYXNzPSJsYWJlbCI+PGcgdHJhbnNmb3JtPSJ0cmFuc2xhdGUoLTUyLjQyMTg3NSwtOS41KSI+PHRleHQgc3R5bGU9IiI+PHRzcGFuIHg9IjEiIGR5PSIxZW0iIHhtbDpzcGFjZT0icHJlc2VydmUiPlRlYW0gTGVhZGVyIDE8L3RzcGFuPjwvdGV4dD48L2c+PC9nPjwvZz48ZyBzdHlsZT0ib3BhY2l0eTogMTsiIHRyYW5zZm9ybT0idHJhbnNsYXRlKDQ5Ljk2ODc1LDQ5Ny4xNTMxMjE5NDgyNDIyKSIgaWQ9ImZsb3djaGFydC13b3JrZXIxXzEtOTIzIiBjbGFzcz0ibm9kZSBkZWZhdWx0Ij48cmVjdCBjbGFzcz0ibGFiZWwtY29udGFpbmVyIiBoZWlnaHQ9IjM5IiB3aWR0aD0iODMuOTM3NSIgeT0iLTE5LjUiIHg9Ii00MS45Njg3NSIgcnk9IjUiIHJ4PSI1Ij48L3JlY3Q+PGcgdHJhbnNmb3JtPSJ0cmFuc2xhdGUoMCwwKSIgY2xhc3M9ImxhYmVsIj48ZyB0cmFuc2Zvcm09InRyYW5zbGF0ZSgtMzEuOTY4NzUsLTkuNSkiPjx0ZXh0IHN0eWxlPSIiPjx0c3BhbiB4PSIxIiBkeT0iMWVtIiB4bWw6c3BhY2U9InByZXNlcnZlIj5Xb3JrZXIgMTwvdHNwYW4+PC90ZXh0PjwvZz48L2c+PC9nPjxnIHN0eWxlPSJvcGFjaXR5OiAxOyIgdHJhbnNmb3JtPSJ0cmFuc2xhdGUoMTgzLjkwNjI1LDQ5Ny4xNTMxMjE5NDgyNDIyKSIgaWQ9ImZsb3djaGFydC13b3JrZXIxXzItOTI3IiBjbGFzcz0ibm9kZSBkZWZhdWx0Ij48cmVjdCBjbGFzcz0ibGFiZWwtY29udGFpbmVyIiBoZWlnaHQ9IjM5IiB3aWR0aD0iODMuOTM3NSIgeT0iLTE5LjUiIHg9Ii00MS45Njg3NSIgcnk9IjUiIHJ4PSI1Ij48L3JlY3Q+PGcgdHJhbnNmb3JtPSJ0cmFuc2xhdGUoMCwwKSIgY2xhc3M9ImxhYmVsIj48ZyB0cmFuc2Zvcm09InRyYW5zbGF0ZSgtMzEuOTY4NzUsLTkuNSkiPjx0ZXh0IHN0eWxlPSIiPjx0c3BhbiB4PSIxIiBkeT0iMWVtIiB4bWw6c3BhY2U9InByZXNlcnZlIj5Xb3JrZXIgMjwvdHNwYW4+PC90ZXh0PjwvZz48L2c+PC9nPjxnIHN0eWxlPSJvcGFjaXR5OiAxOyIgdHJhbnNmb3JtPSJ0cmFuc2xhdGUoMzE3Ljg0Mzc1LDQ5Ny4xNTMxMjE5NDgyNDIyKSIgaWQ9ImZsb3djaGFydC13b3JrZXIxXzMtOTMxIiBjbGFzcz0ibm9kZSBkZWZhdWx0Ij48cmVjdCBjbGFzcz0ibGFiZWwtY29udGFpbmVyIiBoZWlnaHQ9IjM5IiB3aWR0aD0iODMuOTM3NSIgeT0iLTE5LjUiIHg9Ii00MS45Njg3NSIgcnk9IjUiIHJ4PSI1Ij48L3JlY3Q+PGcgdHJhbnNmb3JtPSJ0cmFuc2xhdGUoMCwwKSIgY2xhc3M9ImxhYmVsIj48ZyB0cmFuc2Zvcm09InRyYW5zbGF0ZSgtMzEuOTY4NzUsLTkuNSkiPjx0ZXh0IHN0eWxlPSIiPjx0c3BhbiB4PSIxIiBkeT0iMWVtIiB4bWw6c3BhY2U9InByZXNlcnZlIj5Xb3JrZXIgMzwvdHNwYW4+PC90ZXh0PjwvZz48L2c+PC9nPjxnIHN0eWxlPSJvcGFjaXR5OiAxOyIgdHJhbnNmb3JtPSJ0cmFuc2xhdGUoNTk1LjcxODc1LDQwOC4xNTMxMjE5NDgyNDIyKSIgaWQ9ImZsb3djaGFydC10ZWFtMl9sZWFkZXItOTM3IiBjbGFzcz0ibm9kZSBkZWZhdWx0Ij48cmVjdCBjbGFzcz0ibGFiZWwtY29udGFpbmVyIiBoZWlnaHQ9IjM5IiB3aWR0aD0iMTI0Ljg0Mzc1IiB5PSItMTkuNSIgeD0iLTYyLjQyMTg3NSIgcnk9IjUiIHJ4PSI1Ij48L3JlY3Q+PGcgdHJhbnNmb3JtPSJ0cmFuc2xhdGUoMCwwKSIgY2xhc3M9ImxhYmVsIj48ZyB0cmFuc2Zvcm09InRyYW5zbGF0ZSgtNTIuNDIxODc1LC05LjUpIj48dGV4dCBzdHlsZT0iIj48dHNwYW4geD0iMSIgZHk9IjFlbSIgeG1sOnNwYWNlPSJwcmVzZXJ2ZSI+VGVhbSBMZWFkZXIgMjwvdHNwYW4+PC90ZXh0PjwvZz48L2c+PC9nPjxnIHN0eWxlPSJvcGFjaXR5OiAxOyIgdHJhbnNmb3JtPSJ0cmFuc2xhdGUoNDUxLjc4MTI1LDQ5Ny4xNTMxMjE5NDgyNDIyKSIgaWQ9ImZsb3djaGFydC13b3JrZXIyXzEtOTM5IiBjbGFzcz0ibm9kZSBkZWZhdWx0Ij48cmVjdCBjbGFzcz0ibGFiZWwtY29udGFpbmVyIiBoZWlnaHQ9IjM5IiB3aWR0aD0iODMuOTM3NSIgeT0iLTE5LjUiIHg9Ii00MS45Njg3NSIgcnk9IjUiIHJ4PSI1Ij48L3JlY3Q+PGcgdHJhbnNmb3JtPSJ0cmFuc2xhdGUoMCwwKSIgY2xhc3M9ImxhYmVsIj48ZyB0cmFuc2Zvcm09InRyYW5zbGF0ZSgtMzEuOTY4NzUsLTkuNSkiPjx0ZXh0IHN0eWxlPSIiPjx0c3BhbiB4PSIxIiBkeT0iMWVtIiB4bWw6c3BhY2U9InByZXNlcnZlIj5Xb3JrZXIgMTwvdHNwYW4+PC90ZXh0PjwvZz48L2c+PC9nPjxnIHN0eWxlPSJvcGFjaXR5OiAxOyIgdHJhbnNmb3JtPSJ0cmFuc2xhdGUoNTg1LjcxODc1LDQ5Ny4xNTMxMjE5NDgyNDIyKSIgaWQ9ImZsb3djaGFydC13b3JrZXIyXzItOTQzIiBjbGFzcz0ibm9kZSBkZWZhdWx0Ij48cmVjdCBjbGFzcz0ibGFiZWwtY29udGFpbmVyIiBoZWlnaHQ9IjM5IiB3aWR0aD0iODMuOTM3NSIgeT0iLTE5LjUiIHg9Ii00MS45Njg3NSIgcnk9IjUiIHJ4PSI1Ij48L3JlY3Q+PGcgdHJhbnNmb3JtPSJ0cmFuc2xhdGUoMCwwKSIgY2xhc3M9ImxhYmVsIj48ZyB0cmFuc2Zvcm09InRyYW5zbGF0ZSgtMzEuOTY4NzUsLTkuNSkiPjx0ZXh0IHN0eWxlPSIiPjx0c3BhbiB4PSIxIiBkeT0iMWVtIiB4bWw6c3BhY2U9InByZXNlcnZlIj5Xb3JrZXIgMjwvdHNwYW4+PC90ZXh0PjwvZz48L2c+PC9nPjxnIHN0eWxlPSJvcGFjaXR5OiAxOyIgdHJhbnNmb3JtPSJ0cmFuc2xhdGUoNzE5LjY1NjI1LDQ5Ny4xNTMxMjE5NDgyNDIyKSIgaWQ9ImZsb3djaGFydC13b3JrZXIyXzMtOTQ3IiBjbGFzcz0ibm9kZSBkZWZhdWx0Ij48cmVjdCBjbGFzcz0ibGFiZWwtY29udGFpbmVyIiBoZWlnaHQ9IjM5IiB3aWR0aD0iODMuOTM3NSIgeT0iLTE5LjUiIHg9Ii00MS45Njg3NSIgcnk9IjUiIHJ4PSI1Ij48L3JlY3Q+PGcgdHJhbnNmb3JtPSJ0cmFuc2xhdGUoMCwwKSIgY2xhc3M9ImxhYmVsIj48ZyB0cmFuc2Zvcm09InRyYW5zbGF0ZSgtMzEuOTY4NzUsLTkuNSkiPjx0ZXh0IHN0eWxlPSIiPjx0c3BhbiB4PSIxIiBkeT0iMWVtIiB4bWw6c3BhY2U9InByZXNlcnZlIj5Xb3JrZXIgMzwvdHNwYW4+PC90ZXh0PjwvZz48L2c+PC9nPjxnIHN0eWxlPSJvcGFjaXR5OiAxOyIgdHJhbnNmb3JtPSJ0cmFuc2xhdGUoOTAwLjk1MzEyNSwyNzEuODI2NTYwOTc0MTIxMSkiIGlkPSJmbG93Y2hhcnQtYXBwcm92YWwtOTUzIiBjbGFzcz0ibm9kZSBkZWZhdWx0Ij48cmVjdCBjbGFzcz0ibGFiZWwtY29udGFpbmVyIiBoZWlnaHQ9IjM5IiB3aWR0aD0iMTQwLjQzNzUiIHk9Ii0xOS41IiB4PSItNzAuMjE4NzUiIHJ5PSI1IiByeD0iNSI+PC9yZWN0PjxnIHRyYW5zZm9ybT0idHJhbnNsYXRlKDAsMCkiIGNsYXNzPSJsYWJlbCI+PGcgdHJhbnNmb3JtPSJ0cmFuc2xhdGUoLTYwLjIxODc1LC05LjUpIj48dGV4dCBzdHlsZT0iIj48dHNwYW4geD0iMSIgZHk9IjFlbSIgeG1sOnNwYWNlPSJwcmVzZXJ2ZSI+QXBwcm92YWwgUHJvY2VzczwvdHNwYW4+PC90ZXh0PjwvZz48L2c+PC9nPjxnIHN0eWxlPSJvcGFjaXR5OiAxOyIgdHJhbnNmb3JtPSJ0cmFuc2xhdGUoOTAwLjk1MzEyNSw0MDguMTUzMTIxOTQ4MjQyMikiIGlkPSJmbG93Y2hhcnQtX19FTkRfXy05NTciIGNsYXNzPSJub2RlIGRlZmF1bHQiPjxyZWN0IGNsYXNzPSJsYWJlbC1jb250YWluZXIiIGhlaWdodD0iMzkiIHdpZHRoPSI4Mi4yNDIxODc1IiB5PSItMTkuNSIgeD0iLTQxLjEyMTA5Mzc1IiByeT0iMCIgcng9IjAiPjwvcmVjdD48ZyB0cmFuc2Zvcm09InRyYW5zbGF0ZSgwLDApIiBjbGFzcz0ibGFiZWwiPjxnIHRyYW5zZm9ybT0idHJhbnNsYXRlKC0zMS4xMjEwOTM3NSwtOS41KSI+PHRleHQgc3R5bGU9IiI+PHRzcGFuIHg9IjEiIGR5PSIxZW0iIHhtbDpzcGFjZT0icHJlc2VydmUiPl9fRU5EX188L3RzcGFuPjwvdGV4dD48L2c+PC9nPjwvZz48ZyBzdHlsZT0ib3BhY2l0eTogMTsiIHRyYW5zZm9ybT0idHJhbnNsYXRlKDkwMC45NTMxMjUsNDk3LjE1MzEyMTk0ODI0MjIpIiBpZD0iZmxvd2NoYXJ0LW9wdGltaXplZF9wcm9tcHQtOTU5IiBjbGFzcz0ibm9kZSBkZWZhdWx0Ij48cmVjdCBjbGFzcz0ibGFiZWwtY29udGFpbmVyIiBoZWlnaHQ9IjM5IiB3aWR0aD0iMTU4LjY1NjI1IiB5PSItMTkuNSIgeD0iLTc5LjMyODEyNSIgcnk9IjE5LjUiIHJ4PSIxOS41Ij48L3JlY3Q+PGcgdHJhbnNmb3JtPSJ0cmFuc2xhdGUoMCwwKSIgY2xhc3M9ImxhYmVsIj48ZyB0cmFuc2Zvcm09InRyYW5zbGF0ZSgtNjQuNDUzMTI1LC05LjUpIj48dGV4dCBzdHlsZT0iIj48dHNwYW4geD0iMSIgZHk9IjFlbSIgeG1sOnNwYWNlPSJwcmVzZXJ2ZSI+T3B0aW1pc2VkIFByb21wdDwvdHNwYW4+PC90ZXh0PjwvZz48L2c+PC9nPjwvZz48L2c+PC9nPjwvc3ZnPg==;" vertex="1" parent="1">
                        <mxGeometry x="10" width="830" height="790" as="geometry"/>
                    </mxCell>
                </UserObject>
            </root>
        </mxGraphModel>
    </diagram>
</mxfile>